<?xml version="1.0" encoding="iso-8859-1"?>
<!-- Generator: Adobe Illustrator 19.0.0, SVG Export Plug-In . SVG Version: 6.00 Build 0)  -->
<svg version="1.1" id="Layer_1" xmlns="http://www.w3.org/2000/svg" xmlns:xlink="http://www.w3.org/1999/xlink" x="0px" y="0px"
	 viewBox="0 0 512 512" style="enable-background:new 0 0 512 512;" xml:space="preserve">
<g>
	<path style="fill:#00BCE9;" d="M409.913,58.017c-10.347,11.217-13.267,27.562-8.246,42.303
		c5.401,15.857,20.475,22.958,35.716,22.952c13.297-0.005,29.4-4.614,36.26-17.182c9.067-16.613,5.096-39.6-8.255-52.346
		C450.246,39.289,418.79,38.244,409.913,58.017z"/>
	<path style="fill:#00BCE9;" d="M243.13,56.994c-7.507,17.212,9.34,36.864,26.371,28.17c8.34-4.258,11.792-14.624,11.016-23.772
		c-0.866-10.202-5.639-15.772-15.961-15.935C252.175,45.262,246.779,51.359,243.13,56.994z"/>
	<path style="fill:#00BCE9;" d="M12.565,243.747c3.086,18.522,27.92,25.818,37.462,9.247c4.672-8.115,1.917-18.688-3.718-25.936
		c-6.285-8.082-13.324-10.151-22.066-4.662C13.756,228.982,12.554,237.035,12.565,243.747z"/>
	<path style="fill:#00BCE9;" d="M17.199,313.733c-21.08,15.059-16.718,48.723,4.823,60.022c12.945,6.789,30.404,9.038,39.677-4.854
		c7.812-11.705,9.818-28.011,2.347-40.321c-4.442-7.319-11.457-14.362-19.699-17.05C32.292,307.599,24.555,309.926,17.199,313.733z"
		/>
</g>
<path style="fill:#7CC578;" d="M182.527,136.821c0.108-22.674,10.67-43.949-1.234-65.528
	c-12.963-23.497-50.971-28.415-75.131-25.257c-10.227,1.336-21.204,5.116-29.532,11.125c-9.266,6.686-18.343,11.072-24.08,21.47
	c-6.151,11.15-10.474,25.413-5.613,37.861c4.283,10.97,16.734,20.014,27.33,24.324c6.734,2.739,19.168,2.752,22.829,8.962
	c5.569,9.443,1.917,27.577,3.023,37.989c2.509,23.626,11.565,49.447,23.532,69.975c4.079,6.996,9.199,13.369,14.131,19.721
	c2.534,3.263,8.08,7.687,9.444,11.539c3.891,10.987-14.209,28.28-18.271,38.261c-5.819,14.302-9.05,31.408-10.279,46.773
	c-1.286,16.064,0.065,36.519,14.926,45.693c11.381,7.027,25.291,10.325,37.962,4.196c16.037-7.759,16.937-28.243,20.908-43.7
	c1.432-5.57,2.338-16.213,6.54-20.3c5.497-5.346,12.524,1.321,17.666,3.696c5.447,2.516,12.677,3.03,16.404,8.314
	c5.76,8.164,5.939,23.194,8.747,32.707c6.861,23.246,13.722,50.167,37.801,60.299c19.559,8.23,50.789-4.225,60.595-23.083
	c3.549-6.827,4.341-16.085,1.786-23.296c-2.055-5.794-4.845-10.693-7.894-15.824c-1.271-2.138-6.73-11.65-5.491-13.786
	c2.214-3.814,20.113,1.918,24.761,1.686c10.95-0.549,24.811-4.278,34.595-9.187c8.589-4.309,11.703-8.833,18.147-0.037
	c3.938,5.374,5.919,11.425,10.974,15.968c4.308,3.872,9.015,7.096,14.171,9.736c14.687,7.521,29.252,1.647,42.71-5.491
	c14.783-7.841,26.833-23.145,32.299-38.991c3.048-8.836,0.292-16.288-7.148-21.746c-4.996-3.664-11.534-4.861-17.188-7.095
	c-3.383-1.336-18.084-3.639-19.679-6.445c-2.213-3.891,4.38-7.972,6.655-10.479c4.426-4.876,7.25-10.565,10.908-15.892
	c3.471-5.054,19.648-19.991,16.303-27.277c-6.542-2.903-11.063,0.162-17.609,2.116c-8.405,2.51-18.845,2.925-26.206,7.644
	c-7.672,4.918-11.124,15.464-21.428,16.456c-7.579,0.73-13.04-2.967-20.926,0.43c-6.543,2.818-12.988,7.974-19.232,11.589
	c-8.487,4.915-18.165,9.797-27.965,8.794c-11.786-1.206-21.876,0.1-33.432,2.758c-25.911,5.959-49.947-3.819-63.849-26.416
	c-8.649-14.056-15.405-24.174-30.945-31.708c-6.392-3.099-13.218-5.544-19.112-9.579c-7.404-5.068-8.788-10.23-11.669-18.019
	c-6.907-18.674-17.886-34.784-22.559-54.556c-2.491-10.541-3.288-20.508-2.31-31.259C179.625,143.891,184.38,135.82,182.527,136.821
	z"/>
<path style="fill:#009362;" d="M285.264,130.229c-16.444-1.015-36.202,4.654-52.161,8.212c-14.307,3.19-27.577,8.352-39.587,16.494
	c-4.939,3.348-11.708,7.431-13.735,13.189c-2.378,6.755,1.324,18.884,2.625,25.724c3.467,18.23,10.931,44.855,26.614,56.299
	c13.152,9.598,31.25,13.585,42.857,25.107c15.721,15.608,25.034,44.954,49.053,49.19c22.803,4.022,43.347-6.155,65.941-4.08
	c10.969,1.008,17.709-3.317,26.967-9.325c11.01-7.145,18.767-12.398,32.045-11.064c24.483,2.458,34.33-23.223,22.278-41.76
	c-15.146-23.294-29.423-47.531-41.477-72.648c-7.356-15.328-16.376-32.248-31.454-41.216c-7.389-4.395-17.009-6.341-25.215-8.643
	c-11.526-3.233-24.429-6.014-36.355-7.019C305.692,128.019,296.802,127.606,285.264,130.229z"/>
<g>
	<path style="fill:#36B98A;" d="M120.446,402.177c2.261-5.361,5.254-13.136,10.17-16.558c6.428-4.473,12.103,3.624,17.863,5.843
		c6.727,2.592,13.882-4.209,20.313-5.828c6.661-1.676,15.095,2.149,17.692,8.828c2.534,6.52-3.514,14.902-6.956,20.185
		c-4.262,6.542-12.459,11.614-20.469,11.413c-8.106-0.203-18-5.315-24.341-10.022C128.865,411.694,123.125,409.41,120.446,402.177z"
		/>
	<path style="fill:#36B98A;" d="M177.417,342.712c-1.597,1.146-3.679,3.603-4.268,4.706c-0.926,1.735-1.255,4.097-1.884,5.997
		c-1.593,4.803-5.557,8.371-6.181,13.486c-0.645,5.285,2.727,8.627,7.554,10.063c4.773,1.42,15.119,2.265,19.068-1.277
		c3.384-3.035,4.573-8.716,5.231-12.99c0.647-4.2-1.553-7.813-4.563-10.66c-2.745-2.595-5.342-5.377-8.442-7.567
		c-1.339-0.947-3.64-2.798-5.432-2.334C178.19,342.218,177.819,342.423,177.417,342.712z"/>
	<path style="fill:#36B98A;" d="M172.364,336.525c-7.932,3.795-18.59,5.152-22.464-4.457c-1.748-4.337-2.416-8.519-1.686-13.259
		c0.548-3.559,2.18-10.336,6.158-11.425C161.785,305.355,179.718,334.506,172.364,336.525z"/>
	<path style="fill:#36B98A;" d="M154.783,357.127c0.592,5.443-2.74,12.21-6.249,16.215c-4.963,5.665-9.397,3.083-15.162,0.267
		c-2.503-1.223-4.975-2.577-7.707-3.007c-1.158-0.182-3.714,0.118-4.684-0.566c-3.679-2.59-0.3-13.145,0.502-16.215
		c0.589-2.25,4.154-30.644,10.974-23.614c1.43,1.473,1.617,4.136,3.166,5.706c1.359,1.377,3.332,2.377,4.882,3.566
		C146.749,344.265,154.031,348.094,154.783,357.127z"/>
	<path style="fill:#36B98A;" d="M198.185,272.521c-3.682,2.525-6.086,4.103-6.318,9.065c-0.187,4.012,1.317,7.03,4.724,9.272
		c8.633,5.683,17.103-6.206,13.352-14.429C208.14,272.474,200.658,268.877,198.185,272.521z"/>
	<path style="fill:#36B98A;" d="M230.05,357.951c4.738-1.991,12.778,3.123,17.031,5.418c6.189,3.34,11.717,7.6,15.176,13.818
		c2.799,5.03,5.312,12.491,3.261,18.271c-2.684,7.57-18.299,22.868-24.816,10.797c-2.361-4.374-2.986-9.269-4.338-13.999
		c-1.506-5.273-2.854-10.709-3.795-16.129c-0.719-4.14-1.928-8.242-2.32-12.433C229.919,360.148,231.046,359.07,230.05,357.951z"/>
	<path style="fill:#36B98A;" d="M264.661,412.066c-2.683,3.414-3.571,7.412-5.005,11.263c-1.961,5.268-4.217,10.544-2.147,16.474
		c4.038,11.567,16.2,22.604,28.026,25.838c7.987,2.184,26.591,0.316,29.656-9.364c1.581-4.993,1.912-11.241,2.487-16.467
		c0.558-5.074-0.038-12.258-2.91-16.743c-4.462-6.969-17.285-6.049-23.666-10.521c-3.662-2.567-4.356-7.68-7.746-10.034
		c-5.103-3.542-12.46,3.091-15.957,6.394C266.046,410.184,265.044,411.654,264.661,412.066z"/>
	<path style="fill:#36B98A;" d="M335.808,409.594c-3.002,0.383-6.02,7.087-6.815,9.608c-1.211,3.844-2.08,7.808-2.526,11.819
		c-0.5,4.495-1.072,9.78-0.335,14.284c0.244,1.489,0.758,4.476,2.053,5.485c4.706,3.667,8.676-6.698,9.902-9.455
		c2.911-6.545,3.485-12.573,3.154-19.731C341.011,416.655,340.362,412.059,335.808,409.594z"/>
	<path style="fill:#36B98A;" d="M308.063,359.6c-2.873,1.542-5.794,5.13-8.249,7.355c-3.04,2.756-5.727,6.03-7.759,9.622
		c-2.598,4.592-5.375,13.185-0.04,16.81c2.246,1.525,5.359,1.341,7.462,3.09c2.121,1.764,2.371,4.95,3.831,7.409
		c5.051,8.506,13.227,4.311,19.929-0.008c5.527-3.561,7.908-7.476,6.538-14.256c-1.491-7.376-6.099-14.763-10.832-20.527
		C317.14,366.897,310.976,359.784,308.063,359.6z"/>
	<path style="fill:#36B98A;" d="M264.661,343.942c-5.796,5.057-2.632,24.838,5.903,26.099c11.477,1.695,16.252-17.645,10.371-24.993
		C276.775,339.849,268.095,338.506,264.661,343.942z"/>
	<path style="fill:#36B98A;" d="M392.12,360.149c2.473-3.327,3.169-6.46,7.156-8.516c4.012-2.069,6.634-1.861,9.951,1.304
		c3.579,3.417,4.826,6.977,4.594,11.875c-0.14,2.943-0.761,5.702-2.399,8.241c-0.859,1.334-3.467,5.517-5.012,6.118
		c-2.869,1.116-5.069-4.765-6.594-6.922C396.511,367.568,393.515,364,392.12,360.149z"/>
	<path style="fill:#36B98A;" d="M434.698,327.46c-4.518,5.34-9.146,11.026-11.722,17.607c-2.279,5.824-2.268,14.865,3.97,18.454
		c12.222,7.03,21.538-6.64,25.131-16.845c1.32-3.748,4.223-10.921,2.204-14.765C452.463,328.447,437.933,324.566,434.698,327.46z"/>
	<path style="fill:#36B98A;" d="M472.331,334.328c-7.849,5.097-16.291,16.573-12.436,26.371c1.558,3.962,4.983,6.817,8.377,9.264
		c3.03,2.186,8.842,4.641,10.323,8.317c1.049,2.602,0.872,6.355,0.878,9.202c0.005,3.03-1.382,7.805-0.299,10.544
		c2.628-0.711,6.308-5.426,7.928-7.697c3.428-4.806,6.456-10.066,9.748-14.991c5.07-7.583,10.938-19.618,6.607-28.591
		C499.078,337.669,482.63,332.258,472.331,334.328z"/>
	<path style="fill:#36B98A;" d="M467.112,406.847c3.464-3.684,0.51-13.23-1.991-16.956c-3.872-5.769-9.797-6.636-16.146-6.942
		c-3.107-0.151-6.639-0.078-9.495-1.066c-2.748-0.95-5.017-3.174-7.799-3.871c-7.017-1.758-12.779,5.487-16.371,10.558
		c-2.323,3.278-2.576,4.579,0.621,7.264c5.547,4.66,12.824,7.759,19.369,11.027C443.922,411.166,459.758,416.828,467.112,406.847z"
		/>
	<path style="fill:#36B98A;" d="M182.253,199.177c-6.77-2.49-14.843,5.788-17.969,11.091c-1.931,3.275-2.98,5.985-2.359,9.786
		c0.559,3.426,2.555,5.587,3.916,8.79c3.469,8.165-2.495,16.362,2.396,24.503c5.181,8.622,16.299,14.569,26.371,10.404
		c3.958-1.636,7.823-4.687,10.438-8.034c2.858-3.658,2.659-5.427,1.044-9.759c-3.318-8.9-10.697-15.636-15.006-24.16
		c-2.412-4.77-4.683-9.299-5.341-14.672C185.464,204.862,185.775,200.617,182.253,199.177z"/>
	<path style="fill:#36B98A;" d="M153.959,192.31c2.422,2.298,1.464,9.561-0.336,12.02c-1.954,2.67-5.731,4.99-8.856,4.153
		c-8.706-2.328-8.405-15.372-2.07-20.08C147.897,184.538,153.476,186.865,153.959,192.31z"/>
	<path style="fill:#36B98A;" d="M154.783,169.785c0.381-4.114-0.363-7.764,1.268-11.698c1.815-4.379,5.391-7.809,7.968-11.651
		c4.349-6.485-0.491-11.575-0.719-18.405c-0.231-6.908,7.121-12.168,13.183-13.187c6.08-1.022,7.099,2.206,5.886,8.635
		c-1.998,10.586-2.588,20.671-3.07,31.375c-0.368,8.146,0.898,17.327-0.611,25.341c-1.183,6.291-7.822,4.429-12.741,3.33
		C158.698,181.907,156.605,174.814,154.783,169.785z"/>
	<path style="fill:#36B98A;" d="M149.839,53.314c-1.403,1.897-3.638,2.887-5.02,4.87c-1.815,2.604-2.522,5.614-3.229,8.81
		c-1.458,6.588-0.577,11.325,4.959,15.492c6.877,5.176,2.233,15.33,9.333,20.479c3.215,2.332,6.593,2.321,10.291,2.29
		c2.187-0.019,4.536,0.103,6.627-0.604c2.862-0.97,5.203-3.446,7.671-5.214c2.738-1.961,5.898-3.877,7.018-7.254
		c2.26-6.819-0.802-13.842-4.821-19.197c-5.22-6.954-11.876-14.272-20.056-17.568C159.118,54.008,152.299,51.52,149.839,53.314z"/>
	<path style="fill:#36B98A;" d="M59.189,73.367c-2.19,3.645-1.047,11.501,0.827,14.947c2.523,4.639,6.072,5.493,10.985,4.771
		c6.087-0.893,10.301-4.703,13.247-10.103c2.888-5.296,3.004-9.503,2.422-15.391c-0.346-3.496-1.471-10.874-6.348-10.424
		c-2.472,0.227-4.515,2.762-6.263,4.298c-2.476,2.176-5.185,4.022-7.754,6.078C63.588,69.715,60.666,72.087,59.189,73.367z"/>
	<path style="fill:#36B98A;" d="M107.535,49.743c-0.409,4.04,3.334,11.699,7.691,12.856c6.32,1.679,11.542-0.754,16.78-4.196
		c3.236-2.127,6.364-6.351,5.703-10.543C133.566,47.264,105.837,42.515,107.535,49.743z"/>
	<path style="fill:#36B98A;" d="M135.005,89.574c-5.514,2.518-9.075,13.011-2.312,15.932c8.268,3.571,11.878-4.473,10.278-11.543
		C142.278,90.901,138.61,86.956,135.005,89.574z"/>
</g>
<g>
	<path style="fill:#FFFFFF;" d="M464.808,82.541c-0.332-3.218-1.249-6.565-1.905-9.739c-0.74-3.574-2.39-8.986-6.683-9.498
		c-1.795-1.593-3.919-2.337-7.273-1.572c-3.891,0.887-7.463,4.257-8.134,8.26c-0.416,2.48,0.41,4.231,1.664,6.3
		c2.612,4.314,4.247,7.659,3.367,12.812c-0.898,5.265-3.66,11.419,0.524,16.089c2.855,3.186,7.115,3.321,10.273,0.629
		c4.525-3.856,6.432-9.174,7.263-14.882C464.315,88.111,465.102,85.403,464.808,82.541z"/>
	<path style="fill:#FFFFFF;" d="M54.745,327.636c-1.568-2.356-3.867-4.669-6.41-5.969c-5.234-2.674-12.12-2.941-17.321-0.301
		c-4.206,2.135-9.871,6.199-10.043,11.449c-0.157,4.837,3.956,6.607,8.051,7.06c3.485,0.386,6.53,0.176,9.202,2.921
		c2.507,2.574,3.09,6.359,5.575,8.841c4.027,4.023,9.123,0.619,12.378-2.679c3.307-3.349,4.999-9.383,3.23-13.95
		C58.436,332.499,56.258,329.908,54.745,327.636z"/>
	<path style="fill:#FFFFFF;" d="M262.32,52.967c-0.14,0.067-0.236,0.192-0.297,0.336c-1.641,0.629-3.271,1.767-3.873,3.341
		c-0.999,2.614,0.689,2.891,2.272,4.251c3.686,3.17-3.388,10.386,3.045,12.612c5.622,1.946,9.102-6.615,8.879-10.822
		C272.068,57.434,268.911,49.794,262.32,52.967z"/>
	<path style="fill:#FFFFFF;" d="M29.231,238.064c4.778,0.904,2.254,10.689,8.938,9.403c5.842-1.124,4.581-10.278,2.285-13.811
		c-2.866-4.411-9.418-9.452-13.541-3.411c-0.087,0.129-0.109,0.285-0.089,0.439c-1.108,1.365-1.951,3.166-1.686,4.83
		C25.578,238.281,27.179,237.676,29.231,238.064z"/>
</g>
<path d="M419.744,123.122c10.193,5.001,22.456,4.18,33.257,1.943c5.124-1.061,11.238-2.461,15.529-5.654
	c3.974-2.958,7.249-8.625,9.439-12.988c2.44-4.861,2.737-9.69,3.478-14.978c0.827-5.904,0.109-11.232-1.571-16.823
	c-1.283-4.271-2.419-8.994-5.017-12.732c-1.232-1.772-2.821-3.047-4.031-4.856c-1.409-2.106-3.155-3.753-4.992-5.505
	c-3.693-3.522-7.698-6.848-12.46-8.809c-5.346-2.202-11.633-2.06-17.307-1.471c-5.984,0.621-12.19,2.37-17.343,5.519
	c-2.604,1.591-4.008,4.018-6.311,5.922c-2.344,1.938-4.194,3.766-6.125,6.169c-2.387,2.97-3.934,5.792-5.127,8.852
	c-0.311,0.607-0.601,1.212-0.866,1.812c-1.984,4.485-3.066,9.439-3.644,14.29c-0.669,5.614,0.991,11.225,2.382,16.651
	C401.609,110.507,410.782,118.725,419.744,123.122z M401.627,81.591c0.399-1.071,0.836-2.137,1.224-3.268
	c1.79-5.229,2.676-10.132,6.221-14.575c2.338-2.929,4.803-5.106,7.651-7.46c1.647-1.361,2.656-2.773,4.222-3.962
	c0.346-0.221,0.686-0.453,1.024-0.683c0.12-0.07,0.229-0.145,0.356-0.214c2.518-1.353,5.06-2.299,7.861-2.887
	c9.978-2.095,19.576-2.539,27.857,4.258c3.305,2.713,6.114,5.577,8.369,9.151c0.88,1.395,2.089,1.878,3.13,3.045
	c0.961,1.078,1.612,2.997,2.174,4.314c1.583,3.707,3.426,8.69,3.827,12.722c0.489,4.904-0.711,9.591-1.083,14.413
	c-0.412,5.326-2.989,9.239-5.919,13.633c-3.089,4.632-6.775,6.34-12.093,7.958c-9.613,2.926-19.415,3.582-29.298,1.834
	c-8.828-1.561-17.9-9.47-22.036-17.24c-1.332-2.502-1.656-5.274-2.268-7.998c-0.599-2.665-1.676-5.17-1.657-7.938
	C401.203,85.061,401.363,83.335,401.627,81.591z"/>
<path d="M45.575,308.052c-9.711-2.794-20.857-1.506-29.742,3.378c-9.281,5.102-13.837,16.174-14.762,26.157
	c-0.238,2.574-1.272,4.601-1.036,7.294c0.219,2.503,0.914,5.038,1.434,7.491c0.666,3.143,1.495,6.226,3.368,8.535
	c0.442,1.023,0.914,2.033,1.42,3.018c8.585,16.754,33.204,23.807,49.36,13.855c17.218-10.608,21.03-34.378,11.283-51.402
	C62.026,317.867,55.323,310.858,45.575,308.052z M66.032,348.158c-0.538,8.99-3.7,16.674-10.696,22.421
	c-12.712,10.442-33.889,6.159-43.181-6.783c-6.865-9.562-7.971-21.09-4.335-32.114c1.68-5.095,5.677-12.053,10.368-14.937
	c13.018-8.004,33.705-4.07,41.344,9.285C63.554,333.062,66.53,339.848,66.032,348.158z"/>
<path d="M239.065,73.862c0.205,0.756,0.478,1.489,0.85,2.174c0.637,1.169,2.421,1.972,2.966,2.812
	c2.63,4.051,6.878,7.45,11.272,9.146c6.065,2.343,11.898,0.913,17.599-1.736c5.91-2.747,8.754-7.674,10.989-13.602
	c1.206-3.201,0.733-6.788,0.653-10.126c-0.066-2.767-0.17-5.348-1.448-7.865c-1.256-2.477-2.968-5.257-4.71-7.418
	c-1.986-2.463-4.091-2.981-6.916-4.037c-6.027-2.254-12.961-2.726-18.95,0.404c-6.019,3.146-9.5,9.485-11.667,15.671
	c-1.244,3.551-1.57,7.634-1.188,11.363C238.626,71.715,238.78,72.811,239.065,73.862z M244.472,63.971
	c0.682-3.74,2.632-7.478,5.575-10.826c1.147-1.305,1.886-3.115,3.154-4.23c5.07-4.456,16.916-1.976,20.555,3.234
	c1.3,1.86,3.113,4.373,3.691,6.589c0.691,2.649,0.438,6.064,0.344,8.784c-0.105,3.018-1.751,5.119-2.834,7.829
	c-1.382,3.461-3.696,4.948-7.037,6.392c-6.553,2.833-11.377,2.101-16.993-2.199C245.288,75.224,243.447,69.594,244.472,63.971z"/>
<path d="M14.813,255.929c0.9,0.857,1.975,1.683,3.271,2.549c4.414,2.951,12.129,6.649,17.585,6.384
	c6.959-0.338,12.229-5.059,16.046-10.489c3.747-5.332,3.749-11.021,2.724-17.273c-0.554-3.375-2.757-6.247-4.494-9.098
	c-1.439-2.363-2.819-4.548-5.184-6.091c-2.325-1.517-5.196-3.071-7.787-4.072c-2.951-1.142-5.032-0.538-8.008-0.042
	c-6.348,1.059-12.59,4.114-16.214,9.818c-3.642,5.732-3.491,12.962-2.277,19.403C11.248,251.117,12.402,253.633,14.813,255.929z
	 M18.558,229.391c3.682-5.201,12.06-8.278,17.851-5.566c2.056,0.963,4.881,2.234,6.489,3.864c1.922,1.949,3.41,5.035,4.686,7.438
	c1.416,2.668,1.041,5.309,1.456,8.197c0.532,3.689-0.731,6.132-2.902,9.052c-4.261,5.728-8.806,7.504-15.818,6.585
	c-13.466-1.765-18.151-16.478-12.734-27.918C17.856,230.473,18.182,229.92,18.558,229.391z"/>
<path d="M508.926,343.079c-0.903-1.508-1.405-3.079-2.721-4.314c-1.687-1.583-4.075-2.598-6.022-3.795
	c-4.378-2.695-9.437-3.852-14.322-5.335c-6.186-1.878-12.763-2.323-19.325-2.728c0.505-0.379,1.004-0.765,1.493-1.164
	c2.322-1.894,3.593-4.292,5.384-6.623c4.182-5.444,8.164-10.845,11.78-16.698c1.724-2.791,3.718-5.388,5.473-8.154
	c1.942-3.059,3.357-6.425,5.285-9.48c2.391-3.791,4.936-9.397,1.962-13.625c-3.34-4.751-9.851-3.099-14.515-1.549
	c-6.669,2.215-12.678,6.085-19.668,7.487c-2.187,0.438-4.595,0.688-6.925,1.168c0.479-6.247-0.487-12.694-2.612-17.985
	c-1.928-4.803-4.606-9.052-7.097-13.56c-1.388-2.512-3.052-4.694-4.551-7.121c-1.63-2.639-2.491-5.488-4.379-8.004
	c-3.347-4.46-7.03-8.69-10.048-13.389c-3.413-5.313-6.248-11.017-8.969-16.707c-2.737-5.724-4.337-11.955-7.031-17.744
	c-2.605-5.596-5.232-10.84-8.705-15.965c-3.269-4.826-6.931-9.03-10.975-13.206c-4.57-4.721-8.635-9.33-14.582-12.326
	c-10.905-5.495-21.322-10.507-33.319-13.305c-7.706-1.797-15.735-3.642-23.673-3.753c-7.749-0.108-15.509,0.062-23.26,0.024
	c-7.434-0.035-14.686,1.092-22.084,1.487c-7.303,0.389-14.501,1.472-21.658,2.966c-14.943,3.118-29.647,7.734-43.461,14.279
	c-6.374,3.021-13.251,5.403-19.264,9.073c-2.695,1.645-5.544,3.206-8.143,4.98c-0.23,0.157-0.454,0.322-0.677,0.489
	c0.509-7.942,1.677-15.827,3.322-23.357c0.848-3.886,1.45-7.795,2.195-11.7c0.986-5.171,2.851-10.132,3.759-15.317
	c1.291-7.371,2.273-15.774,0.93-23.158c-1.421-7.804-5.399-15.514-10.162-21.819c-2.032-2.69-5.081-4.4-7.566-6.627
	c-3.099-2.779-6.182-3.689-9.892-5.353c-6.596-2.958-13.94-5.481-21.027-6.973c-8.391-1.767-17.608-4.233-26.22-2.961
	c-8.251,1.219-16.876,2.157-24.652,5.318c-3.486,1.417-6.855,3.113-10.347,4.521c-3.523,1.421-6.697,2.415-9.837,4.707
	c-3.03,2.211-6.321,4.018-9.306,6.265c-3.169,2.385-5.839,5.316-8.68,8.064c-2.528,2.446-3.941,5.566-5.831,8.5
	c-2.273,3.529-4.004,7.741-5.132,11.777c-1.999,7.15-3.782,15.149-1.693,22.51c1.011,3.564,1.817,7.262,3.68,10.463
	c1.998,3.434,4.353,6.099,6.986,9.052c5.535,6.205,12.496,9.684,19.636,13.714c7.312,4.126,16.267,6.081,24.639,6.937
	c-0.913,1.996-1.934,3.929-2.244,6.273c-0.592,4.48,0.514,8.813,0.566,13.25c0.11,9.615,0.821,18.985,2.643,28.465
	c3.781,19.68,9.956,39.792,18.544,57.926c1.711,3.612,4.458,7.535,6.995,10.629c2.755,3.358,5.288,6.967,8.128,10.252
	c2.602,3.008,5.993,5.183,8.686,8.131c1.686,1.846,3.199,3.782,4.612,5.795c-12.018,10.804-17.606,27.064-22.906,42.009
	c-3.339,9.414-6.841,18.369-7.883,28.401c-0.974,9.369-0.674,19.708,0.399,29.05c0.921,8.017,1.912,18.534,7.944,24.47
	c6.343,6.241,15.524,9.25,23.705,12.029c4.194,1.425,8.216,2.245,12.634,2.647c4.442,0.405,8.789-1.292,12.862-2.892
	c8.357-3.283,12.371-8.468,15.384-16.772c1.666-4.591,2.773-9.347,4.406-13.961c1.738-4.912,3.897-10.041,5.041-15.106
	c1.081-4.792,2.3-9.843,3.102-14.656c0.248-1.489,0.453-3.102,0.622-4.694c3.269,1.535,6.612,2.821,10.131,3.802
	c2.526,0.704,5.042,1.454,7.667,1.692c3.07,0.279,6.109-0.134,9.187,0.258c0.009,0.001,0.016,0,0.025,0.001
	c0.516,4.758,1.243,9.468,2.229,14.038c2.458,11.388,6.831,22.625,11.447,33.263c2.431,5.601,4.48,11.411,6.804,17.074
	c2.626,6.399,6.002,12.003,9.909,17.72c3.386,4.954,6.478,10.345,11.593,13.717c4.742,3.126,10.733,4.82,16.36,5.188
	c6.335,0.415,13.988-1.305,19.956-3.37c5.942-2.056,12.078-4.217,17.79-6.845c9.849-4.533,18.143-13.285,21.507-23.602
	c3.818-11.71-0.535-25.445-4.936-36.348c-1.19-2.949-2.488-5.847-3.862-8.706c1.579,0.387,3.168,0.745,4.703,0.987
	c7.858,1.237,16.343,0.692,24.152-0.563c7.739-1.243,15.038-2.505,22.288-5.615c4.066-1.744,9.982-3.176,13.501-6.463
	c2.681,4.729,5.375,9.463,8.845,13.584c3.393,4.03,7.528,7.374,11.387,10.936c3.693,3.408,7.454,6.656,12.231,8.432
	c9.367,3.483,22.142,3.88,31.369-0.223c9.815-4.363,18.211-9.137,25.572-17.038c7.059-7.574,12.603-16.297,17.364-25.463
	c1.839-3.541,3.785-8.353,4.16-12.326C512.327,352.208,512.14,348.444,508.926,343.079z M406.073,195.273
	c3.145,7.379,6.148,14.774,10.273,21.778c2.725,4.627,5.722,8.907,9.08,13.092c1.589,1.98,3.227,3.927,4.781,5.936
	c0.712,0.921,1.265,1.846,1.766,2.784c-4.604,1.594-8.298,4.524-11.507,8.074c-1.073-5.079-3.269-9.721-5.677-14.359
	c-2.581-4.971-5.217-9.385-9.853-12.862c-2.707-2.032-5.393-4.094-8.215-5.92c0.675-1.219,1.109-2.426,1.304-4.334
	c0.453-4.406,0.914-9.324,4.592-12.385C403.322,196.489,404.634,195.915,406.073,195.273z M334.473,281.699
	c2.377-6.391,4.779-13.408,5.763-20.173c0.064-0.441,0.115-0.887,0.174-1.33c1.982-6.75,3.769-13.601,6.928-19.866
	c4.609-9.144,12.481-20.164,22.64-23.602c4.775-1.616,11.499-2.357,16.321-0.638c5.176,1.845,9.399,5.416,13.73,8.691
	c4.318,3.267,6.81,7.817,9.142,12.532c0.937,1.896,1.701,4.092,2.516,6.055c1.175,2.83,1.132,5.941,2.941,8.456
	c0.31,0.43,0.725,0.766,1.193,1.014c-0.981,1.399-1.929,2.832-2.861,4.267c-6.096,9.387-13.57,20.825-24.743,24.548
	c-5.768,1.922-11.933,0.819-17.283-1.588c-5.242-2.358-11.034-2.279-16.51-0.804c-4.954,1.334-9.56,3.716-14.142,5.971
	c-2.72,1.338-5.461,3.012-8.283,4.463C332.894,286.968,333.567,284.134,334.473,281.699z M327.592,278.145
	c-0.766,2.144-1.26,4.284-1.954,6.358c-0.743,2.218-1.778,6.367-3.253,8.079c-0.097,0.112-0.163,0.227-0.244,0.342
	c-5.752,0.422-11.099-3.045-15.047-7.056c-2.44-2.479-4.003-5.828-5.907-8.725c-1.781-2.712-3.433-5.435-4.823-8.369
	c-2.003-4.227-4.053-8.483-6.423-12.512c-2.722-4.627-6.864-7.785-10.914-11.172c-3.812-3.189-8.581-4.437-12.944-6.753
	c-4.096-2.176-8.466-3.499-12.907-4.708c1.413-1.035,2.752-2.182,4.117-3.275c2.283-1.829,4.634-3.277,6.28-5.765
	c3.264-4.937,6.736-9.824,9.152-15.274c2.463-1.321,5.191-2.465,7.796-3.193c6.51-1.817,12.766-1.737,19.453-1.661
	c5.78,0.066,13.41,2.907,18.218,6.267c4.653,3.25,8.325,9.357,10.652,14.397c2.596,5.626,4.352,11.536,4.283,17.788
	c-0.065,5.85,0.666,12.348-0.547,18.094C331.368,266.743,329.562,272.623,327.592,278.145z M388.54,165.763
	c1.762,1.891,3.453,3.846,4.965,5.965c3.306,4.635,6.027,9.23,8.475,14.358c0.426,0.893,0.832,1.793,1.241,2.691
	c-0.738,0.394-1.446,0.782-2.08,1.106c-3.278,1.678-5.625,4.721-7.081,8.052c-1.495,3.421-2.256,7.785-1.99,11.524
	c0.041,0.572,0.067,1.147,0.103,1.717c-1.38-0.691-2.801-1.312-4.29-1.818c-5.472-1.86-12.78-1.146-18.282,0.383
	c-12.338,3.43-20.786,14.69-26.858,25.206c-0.235,0.408-0.455,0.833-0.68,1.253c0.402-1.178,0.712-2.391,0.969-3.556
	c0.893-4.041,1.702-7.818,2.937-11.806c1.357-4.383,2.177-8.894,4.012-13.124c1.906-4.394,4.236-8.776,6.721-12.867
	c4.5-7.408,9.703-14.545,16.643-19.788c3.39-2.561,6.772-5.475,10.554-7.431C385.274,166.92,386.945,166.398,388.54,165.763z
	 M323.155,153.774c2.058-5.717,3.224-11.452,3.302-17.332c9.295,0.991,18.618,3.4,27.355,6.284
	c9.74,3.214,20.767,8.638,27.908,16.033c0.886,0.917,1.782,1.822,2.678,2.727c-1.306,0.571-2.598,1.172-3.845,1.866
	c-4.212,2.34-8.05,5.715-11.891,8.612c-2.05,1.546-3.937,3.312-5.696,5.216c-0.73,0.27-1.447,0.589-2.182,0.913
	c-2.748,1.213-5.246,2.018-8.256,2.378c-5.02,0.598-10.658-1.212-15.073-3.879c-5.582-3.373-10.401-6.144-12.807-12.618
	c-1.178-3.168-1.447-6.34-1.721-9.569C323.002,154.193,323.08,153.982,323.155,153.774z M334.258,180.612
	c3.271,2.05,6.22,3.613,10.004,4.513c2.301,0.547,5.258,1.678,7.578,1.379c1.369-0.177,2.965-0.481,4.527-0.896
	c-1.339,1.956-2.613,3.942-3.844,5.905c-5.059,8.072-8.511,16.518-11.01,25.657c-1.142,4.174-2.568,8.077-3.1,12.367
	c-1.056-3.533-2.436-6.954-4.203-10.192c-2.881-5.279-7.296-11.469-12.455-14.716c-2.774-1.746-5.977-2.7-9.008-3.878
	c-3.718-1.445-7.06-2.863-11.113-2.921c-7.882-0.111-15.006,0.932-22.449,3.447c-1.566,0.53-3.091,1.203-4.553,1.993
	c0.024-0.12,0.035-0.243,0.058-0.364c2.84-1.389,5.776-2.299,8.692-3.585c3.05-1.346,5.976-3.118,8.739-5.023
	c7.676-5.295,14.451-12.181,20.351-19.351c2.896-3.52,5.249-7.908,7.222-12.388c0.43,1.853,1.092,3.673,1.731,5.304
	C323.808,173.953,328.972,177.299,334.258,180.612z M243.408,143.116c24.311-6.609,48.877-7.032,73.881-7.159
	c1.222-0.007,2.449,0.026,3.677,0.078c0.057,0.77,0.103,1.548,0.089,2.331c-0.08,4.246-1.492,8.544-2.889,12.518
	c-2.758,7.85-6.122,16.387-11.566,22.757c-5.453,6.382-11.615,13.581-19.003,17.792c-2.954,1.682-5.528,3.789-8.671,5.159
	c-1.43,0.624-2.605,1.143-3.685,1.764c0.105-1.89,0.074-3.777-0.105-5.606c-0.264-2.708-0.259-5.71-0.979-8.353
	c-0.86-3.163-2.374-6.308-3.524-9.388c-4.131-11.071-12.285-19.437-23.004-24.201c-4.601-2.044-8.409-3.779-13.544-4.57
	c-0.157-0.024-0.318-0.057-0.476-0.085C236.832,145.045,240.09,144.017,243.408,143.116z M192.186,164.035
	c5.134-3.137,10.462-5.171,15.94-7.577c5.633-2.474,11.245-4.909,16.931-7.145c1.849,0.415,3.615,1.014,5.561,1.412
	c2.511,0.512,5.038,0.831,7.491,1.627c2.177,0.707,3.707,1.871,5.684,2.917c4.109,2.174,8.062,4.1,11.391,7.481
	c4.481,4.55,7.334,9.669,9.452,15.647c0.912,2.573,2.289,5.177,2.914,7.823c0.522,2.213,0.556,4.806,0.759,7.077
	c0.478,5.354-0.634,10.443-2.922,15.253c-1.169,2.459-2.489,4.473-4.176,6.609c-1.512,1.914-2.276,4.242-3.769,6.138
	c-3.004,3.813-8.12,5.613-10.814,9.757c-0.177,0.273-0.288,0.546-0.365,0.819c-4.272-1.013-8.819-2.224-11.744-5.071
	c-4.387-4.271-4.862-9.534-6.608-15.03c-3.916-12.328-12.466-21.474-22.498-29.212c-4.322-3.334-9.085-5.374-13.633-8.14
	c-2.45-1.489-5.446-3.357-8.507-4.373C186.326,168.199,189.153,165.889,192.186,164.035z M189.517,179.219
	c2.144,1.502,4.558,2.268,6.651,3.834c2.283,1.708,4.525,3.434,6.661,5.325c9.181,8.126,16.014,17.243,18.621,29.367
	c1.028,4.782,2.626,9.462,5.886,13.191c4.315,4.935,8.972,6.058,15.139,7.584c5.272,1.304,10.778,2.121,15.962,3.727
	c2.512,0.778,4.801,2.134,7.189,3.206c2.913,1.309,6.309,2.223,8.809,4.23c4.18,3.356,7.873,6.422,10.554,11.093
	c2.872,5.004,5.093,10.349,7.936,15.371c5.276,9.322,11.535,19.569,22.462,22.969c11.206,3.486,21.899-4.384,31.492-8.951
	c5.343-2.544,11.29-5.237,17.342-4.292c2.801,0.437,4.912,2.037,7.526,2.95c2.69,0.939,5.895,1.045,8.722,1.271
	c12.96,1.038,23.844-7.833,31.09-17.722c3.782-5.161,7.539-10.326,11.363-15.457c1.769-2.372,3.617-4.713,5.673-6.848
	c2.209-2.294,4.473-3.224,7.304-3.975c4.832,7.655,11.632,15.56,11.688,24.798c0.03,4.888,0.19,10.424-2.216,14.813
	c-2.06,3.756-7.722,9.375-12.106,8.934c-2.36-0.237-4.82-1.111-7.285-1.259c-2.544-0.153-5.035,0.413-7.54,0.808
	c-5.484,0.864-10.289,2.788-15.323,5.103c-4.067,1.87-8.81,4.494-12.278,7.288c-4.873,3.926-10.262,8.7-16.488,10.319
	c-5.773,1.501-11.8-0.37-17.485-1.483c-5.407-1.059-10.029,0.396-15.34,1.293c-2.787,0.471-5.414,0.631-8.123,1.468
	c-2.912,0.9-5.865,1.801-8.859,2.394c-2.896,0.574-6.14,1.414-9.088,1.377c-2.725-0.034-5.815-0.676-8.539-0.974
	c-10.839-1.186-20.959-7.199-28.11-15.304c-4.161-4.716-7.653-10.117-10.647-15.61c-2.669-4.896-5.497-10.353-9.192-14.565
	c-3.893-4.438-9.312-8.053-14.198-11.331c-2.649-1.778-5.318-3.666-8.244-4.951c-2.711-1.19-5.466-1.998-8.105-3.362
	c-5.132-2.655-11.039-5.216-15.299-9.218c-4.753-4.465-8.765-9.758-11.801-15.365c-1.049-1.939-2.133-3.862-3.216-5.783
	c-1.534-3.211-3.213-6.338-4.693-9.556c-3.644-7.917-6.871-16.298-8.824-24.812c-1.28-5.576-2.033-11.347-2.357-17.189
	C184.788,175.545,187.22,177.61,189.517,179.219z M166.733,224.979c-2.38-5.528-3.159-9.895,0.327-15.323
	c0.465-0.586,0.95-1.154,1.444-1.699c0.624-0.688,1.488-1.676,2.492-2.717c1.287-1.081,2.692-2.031,4.167-2.86
	c0.98-0.551,2.538-1.571,3.973-2.251c0.248-0.002,0.494,0.012,0.736,0.055c0.199,0.546,0.399,1.091,0.604,1.636
	c1.456,3.87,2.981,7.599,4.681,11.241c0.369,1.524,0.785,3.032,1.438,4.37c0.155,0.318,0.429,0.676,0.678,1.027
	c-0.032,0.236,0.088,0.955,0.153,1.266c0.52,2.539,2.306,5.297,3.299,7.746c1.085,2.679,2.781,5.026,3.993,7.651
	c1.258,2.723,2.336,5.379,4.105,7.827c1.87,2.589,3.947,5.306,6.228,7.786c-0.837,0.87-1.547,2.057-2.242,2.777
	c-1.873,1.939-4.434,3.426-6.765,4.765c-4.378,2.514-10.277,5.01-15.37,3.204c-3.649-1.294-7.255-4.948-9.25-8.165
	C165.817,244.274,170.726,234.254,166.733,224.979z M174.51,165.419c-0.214,0.785-0.19,1.611,0.03,2.396
	c0.037,2.502,0.089,5.002,0.114,7.49c0.025,2.558,0.242,5.073,0.601,7.557c-0.162-0.047-0.329-0.089-0.508-0.113
	c-8.095-1.055-17.776-5.53-17.639-15.276c0.121-8.574,7.193-13.622,10.459-20.794c2.554-5.606-1.233-10.486-1.544-16.032
	c-0.24-4.253,0.592-8.063,4.049-10.776c1.691-1.327,3.421-1.869,5.426-2.317c-0.81,0.181,3.26-0.402,4.949-0.85
	c-0.504,2.507-0.985,5.027-1.343,7.589c-1.115,7.976-2.596,15.894-3.733,23.873C174.562,153.862,174.457,159.643,174.51,165.419z
	 M150.3,55.286c2.668,0.885,5.384,1.68,8.011,2.637c2.672,0.974,6.171,2.129,8.561,3.63c6.373,4.002,10.448,9.878,13.708,16.514
	c1.572,3.2,2.839,6.506,3.3,10.077c0.111,0.856,0.156,1.698,0.159,2.531c-0.385,0.204-0.733,0.534-0.994,1.037
	c-2.757,5.314-11.934,10.654-17.832,10.646c-6.162-0.009-11.013-3.684-11.936-9.882c-0.371-2.495,0.002-5.01-0.731-7.472
	c-1.698-5.7-8.256-7.049-9.964-12.558c-0.452-1.458-0.626-2.834-0.589-4.142c0.498-1.875,1.29-3.73,1.89-5.664
	c0.163-0.523,0.353-1.017,0.559-1.495c1.127-1.735,2.538-3.355,4.022-4.907C149.035,55.871,149.64,55.543,150.3,55.286z
	 M124.932,50.028c3.184,0.298,6.385,0.719,9.569,1.255c-4.156,6.239-10.501,12.06-18.597,9.202
	c-3.692-1.304-5.377-4.824-7.178-8.106c-0.092-0.301-0.175-0.594-0.241-0.87C113.947,50.349,119.696,49.538,124.932,50.028z
	 M64.754,73.037c2.526-2.516,5.075-4.326,8.083-6.194c2.982-1.853,5.515-4.462,8.758-5.851c0.834,1.913,2.298,3.717,2.844,5.688
	c1.564,5.649-0.561,12.144-3.594,16.887c-2.609,4.081-10.476,8.063-15.369,5.746c-4.656-2.205-4.509-6.914-5.162-11.222
	C61.694,76.314,63.171,74.614,64.754,73.037z M128.376,342.809c1.226-3.486,2.449-6.968,3.696-10.442
	c1.187,3.126,3.07,6.024,5.463,8.355c2.267,2.207,5.312,3.107,7.902,4.816c4.025,2.654,6.361,7.297,6.017,12.185
	c-0.434,6.175-6.394,18.916-14.406,14.285c-4.589-2.652-8.953-6.483-14.353-5.977C123.024,357.937,125.709,350.39,128.376,342.809z
	 M183.594,395.607c-1.25,3.683-2.366,7.286-3.379,11.036c-0.941,3.483-2.118,7.684-4.543,10.435
	c-4.831,5.483-14.45,6.266-21.093,5.136c-7.637-1.301-15.47-4.984-22.015-9.022c-5.258-3.244-7.181-9.503-8.18-15.663
	c0.026-0.098,0.06-0.191,0.088-0.288c3.052-5.157,7.796-12.523,13.644-10.463c4.63,1.631,6.537,8.06,11.783,8.553
	c5.755,0.542,10.87-4.422,15.849-6.315c6.57-2.499,13.84,0.672,18.13,5.754C183.782,395.049,183.69,395.328,183.594,395.607z
	 M187.555,383.892c-0.497,1.428-0.978,2.863-1.461,4.297c-3.544-2.996-9.169-5.046-12.137-5.508c-3.644-0.567-7.53,0.01-10.931,1.39
	c-4.186,1.7-8.082,6.195-12.866,4.836c-3.474-0.987-5.339-4.71-8.466-6.473c-2.303-1.298-6.65-1.861-9.21-0.946
	c-3.253,1.164-6.641,4.257-9.085,7.871c-0.575-5.999-0.749-12.081-0.753-18.129c0.07-0.018,0.142-0.027,0.212-0.042
	c1.449,0.23,2.911,0.371,4.316,0.896c2.095,0.782,4.338,2.37,6.141,3.658c2.124,1.516,3.659,2.344,5.91,2.421
	c0.956,0.266,1.905,0.387,2.843,0.288c4.553-0.483,7.708-3.538,9.912-7.288c1.287-1.856,2.311-3.944,3.091-6.108
	c2.666-7.406,2.276-16.794-4.053-22.307c-3.175-2.766-7.54-3.718-10.433-6.758c-2.343-2.46-4.365-5.554-5.966-8.754
	c-0.038-0.569-0.056-1.136-0.035-1.707c1.352-3.588,2.757-7.155,4.259-10.691c1.659-3.904,4.573-7.172,6.704-10.835
	c0.953-1.638,1.92-3.262,2.873-4.894c1.179,2.066,2.254,4.198,3.303,6.348c-2.444,2.147-3.925,5.859-4.706,8.687
	c-1.527,5.533-2.346,11.457-0.381,16.997c1.121,3.159,3.063,5.443,5.46,7.01c4.801,4.059,12.166,4.365,17.901,1.425
	c0.475-0.157,0.935-0.333,1.392-0.515c0.754,0.967,1.536,1.926,2.339,2.881c-2.845,2.206-4.215,6.426-4.916,9.946
	c-1.38,6.939-8.052,10.556-6.649,18.551c1.163,6.622,5.353,9.757,11.761,10.761c4.193,0.658,9.47-0.4,13.61-1.145
	c0.363-0.066,0.71-0.136,1.045-0.215C188.325,381.22,188.01,382.583,187.555,383.892z M153.568,309.278
	c1.832,3.86,3.659,7.734,5.813,11.432c2.855,4.904,5.669,9.506,8.781,13.942c-3.051,0.828-5.831,1.798-9.189,0.889
	c-5.092-1.378-8.004-4.786-8.416-10.078C150.206,320.964,150.9,313.947,153.568,309.278z M192.143,361.895
	c-1.202,3.581-1.773,7.634-2.499,11.38c-0.069,0.359-0.125,0.725-0.187,1.088c-0.704,0.129-1.422,0.305-2.296,0.452
	c-2.39,0.399-4.862,0.415-7.289,0.777c-3.935,0.587-9.464,1.319-11.889-3.222c-1.158-2.169-1.165-5.898-0.281-7.942
	c0.176-0.407,0.381-0.796,0.599-1.178c1.052-1.328,2.17-2.636,2.872-4.103c1.025-1.421,1.944-2.906,2.328-4.713
	c0.739-3.47,1.071-6.632,2.901-9.428c2.974,3.29,5.855,6.256,9.347,9.129c2.244,1.845,4.58,3.937,7.022,5.761
	C192.576,360.517,192.382,361.182,192.143,361.895z M247.679,407.525c-3.011-7.314-5.618-14.722-8.109-22.305
	c-1.855-5.649-2.155-11.554-3.141-17.386c-0.434-2.562-0.764-5.159-1.039-7.763c0.253,0.054,0.5,0.111,0.749,0.167
	c3.482,1.534,6.881,3.353,10.126,5.255c5.609,3.286,9.35,7.182,12.451,12.972c3.7,6.906,2.413,16.006-2.398,21.935
	C253.995,403.262,250.541,405.193,247.679,407.525z M311.655,449.713c-0.754,2.269-2.012,4.848-2.846,7.409
	c-5.255,1.643-10.085,2.867-15.679,3.631c-5.571,0.761-11.76-0.327-16.77-3.022c-4.784-2.573-7.511-7.999-10.455-12.358
	c-2.58-3.819-5.095-7.601-7.129-11.698c1.236-3.772,2.047-7.705,3.611-11.391c1.905-4.494,3.939-9.331,7.023-13.162
	c4.645-5.769,10.572-6.987,14.994-0.712c2.313,3.283,4.212,5.997,8.104,7.531c4.289,1.691,9.151,1.601,13.041,4.316
	c4.792,3.345,9.061,9.843,8.837,15.822C314.22,440.579,313.073,445.444,311.655,449.713z M337.735,421.695
	c1.581,6.316,1.366,11.411-1.513,17.279c-1.686,3.435-4.406,5.958-7.33,8.34c-0.416-2.216-0.386-4.567-0.626-6.756
	c-0.399-3.635-0.382-7.77-0.156-11.4c0.401-6.447,4.159-11.491,6.633-17.101C335.893,415.204,336.912,418.406,337.735,421.695z
	 M400.305,367.153c-2.106-2.715-3.949-5.44-5.814-8.288c1.654-1.718,3.043-3.875,4.954-5.116c3.877-2.516,8.542-0.289,10.566,3.675
	c3.34,6.545-0.826,12.366-3.935,18.183C404.239,372.704,402.38,369.826,400.305,367.153z M442.84,406.907
	c-9.849-1.183-17.234-8.32-24.302-14.754c-0.52-0.474-1.017-0.968-1.506-1.469c2.76-2.618,4.935-5.93,8.197-8.008
	c6.92-4.407,10.249,1.805,16.032,4.079c6.448,2.535,13.166-2.307,19.374,1.944c5.131,3.514,3.01,9.556,4.854,14.409
	C458.367,406.424,450.985,407.885,442.84,406.907z M465.684,385.701c-2.592-2.645-6.499-3.927-10.095-4.358
	c-1.488-0.178-3.045-0.001-4.609,0.23c-0.849-0.071-1.684-0.132-2.476-0.186c-2.054-0.141-4.237,0.319-6.293-0.008
	c-2.941-1.4-4.574-4.048-7.884-5.02c-3.146-0.924-6.46-0.693-9.507,0.604c-4.198,1.789-8.472,5.862-10.867,10.22
	c-1.706-2.133-3.269-4.396-4.771-6.71c0.783-1.773,1.692-3.47,2.59-5.166c1.843-3.06,3.449-6.263,3.917-9.674
	c0.037-0.272,0.06-0.541,0.081-0.809c0.038-0.255,0.082-0.507,0.11-0.767c0.615-5.68-0.993-9.98-5.446-13.518
	c-6.336-5.032-15.51-2.262-18.278,4.841c-2.697-3.718-6.081-7.264-6.985-11.793c-0.368-1.844-3.032-1.022-2.772,0.764
	c0.62,4.261,2.983,7.693,4.679,11.57c2.016,4.611,3.938,9.466,6.9,13.536c0.839,1.153,1.634,2.345,2.402,3.557
	c-1.058,0.555-2.049,1.308-3.136,1.893c-2.847,1.533-5.93,2.608-8.901,3.864c-6.744,2.851-13.571,4.14-20.719,5.544
	c-6.986,1.372-15.683,2.438-22.779,1.381c-2.398-0.357-5.696-1.228-8.738-1.35c-3.818-6.91-8.13-13.549-12.867-19.891
	c-2.037-2.727-3.991-5.517-6.278-8.046c-2.379-2.63-5.336-4.45-7.817-6.93c-4.88-4.876-9.862-9.903-15.325-14.172
	c-2.532-1.977-5.668,1.027-3.558,3.558c1.687,2.021,2.932,4.342,4.587,6.385c1.814,2.237,4.095,3.919,6.043,6.01
	c2.236,2.401,4.717,4.698,7.045,7.09c-6.751,4.375-13.199,11.732-15.67,19.253c-1.357,4.131-2.582,8.652-1.079,12.921
	c1.388,3.94,4.462,5.368,7.943,7.042c3.674,1.768,4.653,3.733,6.161,7.154c0.637,1.445,1.283,2.741,2.5,3.769
	c1.167,0.984,2.466,1.527,3.826,1.81c1.825,0.513,3.804,0.592,5.594,0.314c4.209-0.653,7.874-2.199,10.826-4.579
	c2.16-1.593,4.034-3.59,5.584-5.964c1.349,2.805,2.613,5.647,3.774,8.53c-2.838,1.666-4.727,5.969-6.197,8.608
	c-2.047,3.675-3.516,8.089-4.103,12.25c-0.701,4.973-0.667,10.394-0.498,15.406c0.071,2.128,0.207,4.448,1.056,6.382
	c-2.406,1.491-5.004,2.587-7.676,3.53c1.323-3.251,2.14-6.821,2.88-10.031c0.219-0.95,0.363-1.909,0.474-2.869
	c0.767-4.275,0.919-8.546-0.559-12.793c-0.392-1.128-0.9-2.239-1.479-3.325c-0.781-2.029-1.923-3.611-3.323-4.875
	c-1.506-1.786-3.203-3.396-5.008-4.709c-4.994-3.631-11.308-2.708-16.246-5.777c-4.628-2.877-5.731-8.789-11.215-10.707
	c-5.065-1.771-9.628,0.487-13.388,4.084c-4.238,4.057-6.763,9.771-9.072,15.057c-1.112,2.545-2.337,5.373-3.122,8.268
	c-1.724-4.251-3.402-8.545-5.294-12.692c-0.176-0.386-0.343-0.774-0.515-1.161c2.149-1.1,4.241-2.606,6.154-4.319
	c2.302-1.373,4.39-3.308,6.385-5.975c4.397-5.875,5.397-14.282,3.157-21.204c-0.266-0.822-0.591-1.654-0.96-2.485
	c-0.256-0.761-0.534-1.516-0.854-2.254c-2.427-5.594-6.867-11.535-12.293-14.48c-5.172-2.806-10.692-6.351-16.689-6.667
	c-0.198-2.644-0.34-5.291-0.382-7.921c-0.111-6.78,0.282-13.782-0.802-20.478c-0.501-3.096-0.775-6.251-1.165-9.366
	c-0.386-3.077-0.978-6.185-0.037-9.203c0.872-2.797-3.282-3.804-4.306-1.188c-1.881,4.805-1.732,10.98-2.018,16.071
	c-0.416,7.364,0.135,14.951,0.036,22.361c-0.067,4.994,0.03,10.111,0.326,15.236c-8.185-2.051-16.283-3.335-23.906-7.27
	c-3.281-1.694-6.361-4.363-9.287-6.632c-3.416-2.648-6.564-5.285-9.4-8.552c-2.93-3.374-6.238-6.309-8.789-10.007
	c-2.573-3.728-4.656-7.766-6.96-11.66c-4.363-7.371-7.424-15.287-11.415-22.715c-3.359-6.25-7.395-12.077-12.765-16.881
	c-6.059-5.419-11.357-11.982-15.88-18.76c-5.272-7.9-8.238-16.986-11.536-25.862c-3.373-9.08-5.919-18.424-8.355-27.804
	c-2.579-9.928-4.117-20.263-4.361-30.496c-0.114-4.795-0.725-9.524-1.082-14.319c-0.17-2.293,0.14-4.653,0.031-6.944
	c8.917,0.346,18.007-0.648,26.569-2.947c4.495-1.208,9.272-2.851,13.17-5.449c3.837-2.557,6.822-6.606,9.542-10.278
	c1.289-1.74-1.223-4.109-2.95-2.95c-6.896,4.628-14.005,8.224-22.082,10.263c-8.569,2.162-16.965,2.316-25.758,2.036
	c-7.495-0.238-15.04-2.283-22.015-5.006c-6.539-2.552-12.116-6.742-17.535-10.941c-2.369-1.836-4.943-4.613-6.658-7.093
	c-0.082-0.119-0.142-0.232-0.218-0.349c6.265,4.678,14.427,7.141,21.978,7.183c6.377,0.035,12.271-1.46,18.256-3.566
	c4.376-1.54,8.717-4.157,11.443-7.997c2.024,1.078,4.521,1.692,6.432,1.004c3.03-1.091,2.924-4.938,0-6.069
	c-1.661-0.643-3.271-0.426-4.801-1.537c-1.476-1.072-3.271-2.54-4.322-4.037c-1.376-1.961-4.316-0.77-3.847,1.622
	c0.307,1.564,1.087,3.271,2.079,4.782c-0.959,2.155-1.91,4.028-4.045,5.444c-2.021,1.342-4.386,2.131-6.692,2.824
	c-5.166,1.553-9.818,2.885-15.306,2.796c-5.093-0.082-10.43-1.604-15.136-3.572c-3.41-1.426-6.254-4.075-8.957-6.708
	c-0.037-0.103-0.067-0.201-0.108-0.307c-2.703-7.048-1.025-14.889,1.347-21.888c0.911-2.689,2.143-5.242,3.581-7.671
	c0.157,1.398,0.513,2.763,1.064,4.05c0.548,1.965,1.631,3.779,3.53,5.299c4.238,3.391,10.797,2.644,15.346,0.208
	c0.423-0.165,0.843-0.334,1.252-0.509c6.634-2.85,10.03-10.624,11.014-17.489c0.879-6.129-1.174-10.271-3.871-15.088
	c5.52-2.262,10.934-5.028,16.706-6.488c0.801-0.203,1.621-0.405,2.449-0.605c0.211,2.25,1.734,4.61,2.887,6.234
	c2.966,4.182,5.008,6.124,10.233,6.73c9.684,1.123,17.679-4.74,21.78-13.197c2.096,0.455,4.18,0.963,6.23,1.564
	c-1.925,1.247-3.677,2.621-5.098,4.895c-2.234,3.575-3.339,8.282-2.848,12.474c0.41,3.497,1.857,6.918,4.504,9.241
	c0.067,0.058,0.132,0.109,0.198,0.166c0.953,1.176,2.04,2.103,3.278,3.101c0.524,0.422,0.958,0.844,1.333,1.268
	c0.331,0.543,0.614,1.145,0.819,1.868c0.668,2.362,0.308,5.255,0.756,7.705c1.466,7.995,9.753,14.113,17.931,13.248
	c1.655-0.175,3.439-0.608,5.249-1.23c4.271-0.997,8.751-3.096,11.6-6.25c-0.391,4.459-1.257,8.783-2.146,13.112
	c-5.235-4.023-14.942,2.021-17.974,6.556c-2.372,3.547-2.674,8.621-2.095,12.771c0.286,2.048,1.179,3.984,1.713,5.981
	c0.887,3.313,0.529,5.001-1.066,7.827c-0.123,0.219-0.251,0.437-0.378,0.656c-1.034,1.5-1.971,3.093-3.003,4.604
	c-0.644,0.944-1.228,1.921-1.759,2.922c-3.517,5.683-6.283,11.682-3.556,18.663c0.867,2.218,2.083,4.271,3.567,6.098
	c1.793,2.774,4.632,4.965,7.86,6.302c3.173,1.583,6.701,2.448,10.316,2.368c0.57-0.013,1.032-0.157,1.411-0.378
	c0.593,2.681,1.331,5.333,2.178,7.964c-4.249,0.679-10.163,5.369-11.96,6.996c-5.463,4.945-8.527,13.403-5.876,20.399
	c1.335,3.523,3.156,6.421,3.077,10.311c-0.09,4.497-1.113,9.035-0.064,13.502c1.712,7.29,5.138,11.997,10.693,16.634
	c6.284,5.247,14.196,3.958,21.267,1.091c2.65-1.075,11.256-5.405,13.88-9.802c0.534,0.431,1.076,0.844,1.631,1.227
	c4.562,3.161,9.121,6.013,14.071,8.535c2.599,1.324,5.448,2.018,8.051,3.299c3.127,1.537,6.381,3.89,9.084,6.069
	c4.707,3.794,9.259,6.84,12.407,12.157c2.905,4.906,5.477,10.098,8.731,14.756c7.429,10.636,14.884,19.263,26.678,25.257
	c9.856,5.009,22.98,5.658,33.54,3.507c5.832-1.188,11.39-3.538,17.228-4.443c3.005-0.466,5.919-1.278,8.886-1.892
	c3.415-0.708,6.314,0.131,9.714,0.697c6.207,1.032,12.511,2.272,18.649,0.248c5.735-1.891,11.283-5.453,15.969-9.207
	c8.92-7.146,21.943-12.811,33.473-11.239c0.41,0.056,0.953,0.075,1.468,0.118c-0.032,0.114,1.999,0.792,2.016,0.798
	c2.822,0.982,5.58,0.489,8.255-0.659c5.183-2.226,9.857-6.302,12.955-11.009c1.448-2.201,2.538-4.684,3.315-7.318
	c1.09-0.029,2.191-0.152,3.25-0.254c4.424-0.427,8.818-1.397,13.07-2.659c5.174-1.536,9.92-4.422,15.074-5.806
	c0.565-0.152,3.437-1.028,3.986-0.856c1.158,0.365,0.669,0.361,0.57,1.572c-0.187,2.287-3.116,5.664-4.211,7.654
	c-5.209,9.468-12.292,18.875-19.303,27.097c-1.45,1.701-2.617,3.626-4.063,5.313c-1.486,1.733-3.549,2.799-5.104,4.456
	c-1.052,1.121-2.1,2.429-3.094,3.775c-1.469-0.181-2.925-0.401-4.364-0.677c-5.94-1.138-11.883-1.678-17.827-2.654
	c-5.282-0.867-12.311-1.628-17.09-4.094c-2.591-1.336-5.113,1.846-3.111,4.031c4.003,4.368,10.813,6.064,16.954,7.518
	c-4.642,5.182-8.254,12.178-9.404,19.034c-0.138,0.437-0.279,0.874-0.4,1.317c-0.799,2.927-0.368,6.115,0.781,8.955
	c1.246,4.338,4.106,7.905,9.328,8.9c6.914,1.32,11.823-1.211,15.837-6.987c2.684-3.863,4.614-7.476,6.17-11.861
	c1.31-2.838,2.239-5.753,2.948-9.075c0.252-1.182,0.536-2.499,0.63-3.788c0.136-0.498,0.281-0.991,0.426-1.484
	c1.731,0.083,3.462-0.008,5.195,0.175c1.925,0.201,3.828,0.413,5.722,0.639c-2.629,1.876-4.849,4.698-6.341,7.05
	c-3.293,5.19-5.471,12.07-3.085,18.071c0.282,0.709,0.628,1.377,1.015,2.018c1.658,3.697,4.736,6.118,8.049,8.227
	c1.617,1.379,3.18,2.776,4.462,4.323c3.063,3.695,5.506,7.988,5.564,12.902c0.032,2.696-0.801,5.312-0.782,7.952
	c-1.911,1.459-3.917,2.826-6.052,4.084C470.684,395.438,468.857,388.938,465.684,385.701z M327.396,395.597
	c-3.647,4.379-7.511,8.542-13.293,9.592c-4.374,0.794-7.068,0.714-8.733-3.702c-0.934-2.478-1.472-5.532-3.655-7.295
	c-3.37-2.721-8.1-0.437-10.041-5.641c-0.653-1.749-0.389-4.29,0.264-6.793c0.052-0.118,0.102-0.237,0.153-0.353
	c1.815-4.125,4.296-8.185,7.29-11.55c1.341-1.506,2.813-2.863,4.286-4.234c0.885-0.822,2.345-2.549,3.725-3.427
	c7.017,8.66,12.148,18.78,17.432,28.511C325.705,392.328,326.555,393.961,327.396,395.597z M451.78,334.322
	c-0.283,1.289-0.457,2.612-0.749,3.928c-0.839,3.773-2.329,7.731-3.705,11.335c-1.428,3.741-3.358,6.748-5.806,9.889
	c-2.195,2.817-4.173,3.612-7.596,3.679c-16.531,0.327-4.313-22.832,0.446-31.986c0.452,0.118,0.903,0.236,1.334,0.359
	c4.363,1.253,8.829,1.19,13.299,2.099C449.939,333.817,450.859,334.072,451.78,334.322z M502.405,358.498
	c-2.095,8.46-7.687,16.855-12.647,23.926c-2.224,3.17-4.635,6.053-7.259,8.686c0.127-2.661-0.175-5.335-0.676-7.157
	c-0.367-1.337-0.858-2.624-1.433-3.872c-0.537-1.758-1.442-3.237-2.578-4.524c-1.547-2.283-3.342-4.411-5.231-6.385
	c-5.584-5.84-12.748-8.628-9.923-18.404c1.48-5.12,5.212-9.251,8.613-13.355c0.453-0.302,0.909-0.574,1.366-0.759
	c5.152,0.743,10.238,1.71,15.341,3.186c3.952,1.144,9.034,2.689,11.931,5.795C503.078,349.03,503.478,354.164,502.405,358.498z"/>
<path d="M285.133,352.506c0.018-4.525-1.394-8.922-4.632-11.432c-3.605-2.794-8.106-2.828-11.543-0.915
	c-0.676,0.181-1.331,0.415-1.957,0.711c-0.995,0.219-1.873,0.847-2.638,1.76c-1.906,1.818-3.48,4.772-3.218,7.377
	c-0.978,4.02-1.248,8.22-0.938,10.02c0.615,3.572,2.489,6.121,4.938,7.653c2.089,2.215,4.925,3.717,8.051,3.15
	c4.001-0.725,6.975-4.407,9.196-7.532C284.654,360.112,285.538,356.226,285.133,352.506z M278.881,345.503
	c2.978,3.646,2.14,10.814-0.212,14.518c-1.876,2.952-5.659,5.209-9.141,4.264c-3.891-1.056-5.102-4.84-5.127-8.621
	c-0.022-3.306,0.949-6.472,2.459-9.376c2.184-1.758,5.099-3.169,7.485-3.015c0.685,0.044,1.302,0.174,1.865,0.367
	C277.139,344.08,278.037,344.695,278.881,345.503z"/>
<path d="M112.061,73.63c-3.693,0.461-6.317,3.446-7.626,6.759c-1.305,3.306-0.52,6.342,1.706,9.008
	c2.425,2.903,6.575,4.661,10.063,2.482c0.961-0.601,1.802-1.453,2.48-2.441c0.727-0.62,1.372-1.324,1.868-2.117
	C124.234,81.428,119.161,72.743,112.061,73.63z"/>
<path d="M145.48,91.709c-2.405-4.097-10.067-7.204-13.708-3.086c-3.015,1.933-4.907,7.079-4.641,10.197
	c0.515,6.05,6.726,10.939,12.809,8.828c2.769-0.961,4.756-3.807,5.465-6.545C146.205,98.008,147.208,94.651,145.48,91.709z
	 M141.119,92.132c0.391,0.348,0.68,0.805,0.896,1.322c0.053,0.164,0.108,0.325,0.155,0.503c0.099,0.377,0.185,0.783,0.26,1.201
	c0.278,2.811-0.927,6.385-2.705,7.85c-3.725,3.067-8.966-0.304-9.294-4.672c-0.048-0.642,0.003-1.267,0.123-1.876
	c0.98-2.392,3.19-4.721,5.459-5.74C137.82,90.591,139.586,90.766,141.119,92.132z"/>
<path d="M156.995,190.723c-1.352-2.924-3.672-6.66-7.02-7.587c-0.92-0.255-1.646-0.277-2.257-0.151
	c-1.309-0.791-3.181,0.832-4.05,1.771c-0.686,0.741-1.442,1.391-2.133,2.123c-0.265,0.281-0.502,0.587-0.725,0.904
	c-3.915,3.47-6.462,8.677-4.665,13.806c0.383,1.095,0.988,2.134,1.745,3.081c0.263,0.464,0.55,0.917,0.892,1.353
	c2.784,3.539,6.885,4.659,10.413,3.553c1.167-0.169,2.292-0.56,3.313-1.224C158.855,204.226,160.048,197.331,156.995,190.723z
	 M153.068,201.119c-0.079,0.368-0.194,0.704-0.311,1.038c-0.53,0.643-1.157,1.254-1.914,1.817
	c-3.281,2.441-7.631,0.863-10.068-2.254c-3.683-4.709,0.293-9.804,4.167-13.34c1.18-0.658,2.435-0.975,3.707-0.709
	C154.135,188.815,153.979,196.903,153.068,201.119z"/>
<path d="M213.522,280.772c0.044-4.342-1.738-7.016-5.173-9.439c-2.755-1.943-6.338-3.029-9.66-2.157
	c-1.755,0.46-3.114,1.339-4.275,2.769c-0.524,0.645-0.721,1.214-0.9,1.807c-1.071,1.241-1.998,2.676-2.599,4.144
	c-1.371,3.35-1.193,7.58,0.165,10.912c1.442,3.534,4.963,5.263,8.729,5.509c1.147,0.226,2.203,0.152,3.223-0.148
	c2.469-0.38,4.82-1.356,6.528-2.871C212.508,288.682,213.483,284.584,213.522,280.772z M198.943,273.715
	c1.275-0.549,2.687-0.726,4.735-0.038c5.67,1.905,7.79,9.251,3.722,13.917c-1.553,1.781-3.647,2.185-5.895,2.427
	c-3.445,0.371-6.214-0.14-7.263-3.918C192.599,280.178,195.561,277.249,198.943,273.715z"/>
<g>
</g>
<g>
</g>
<g>
</g>
<g>
</g>
<g>
</g>
<g>
</g>
<g>
</g>
<g>
</g>
<g>
</g>
<g>
</g>
<g>
</g>
<g>
</g>
<g>
</g>
<g>
</g>
<g>
</g>
</svg>
