<?xml version="1.0" encoding="iso-8859-1"?>
<!-- Generator: Adobe Illustrator 19.0.0, SVG Export Plug-In . SVG Version: 6.00 Build 0)  -->
<svg version="1.1" id="Capa_1" xmlns="http://www.w3.org/2000/svg" xmlns:xlink="http://www.w3.org/1999/xlink" x="0px" y="0px"
	 viewBox="0 0 511.999 511.999" style="enable-background:new 0 0 511.999 511.999;" xml:space="preserve">
<path style="fill:#FEB756;" d="M402.746,138.676l0.23-0.63c9.751-7.301,16.072-18.942,16.072-32.064
	c0-22.093-17.912-40.005-40.005-40.005c-14.942,0-27.963,8.191-34.844,20.322c-16.122-2.02-30.664,5.571-38.664,17.822
	C275.752,89.09,234.947,82.57,198.313,87.72c-85.69,12.071-149.737,90.4-148.277,177.14c0.02,1.5,0.11,2.99,0.26,4.451
	c3.22,32.624,35.274,56.697,62.387,56.697h113.343h193.022c0-22.093-17.912-40.005-40.005-40.005
	c4.37-15.162,18.302-25.023,33.534-25.023c2.46,0,4.961,0.25,7.461,0.79c27.253,5.871,46.955,4.09,59.407,0.18
	C514.839,250.849,521.33,182.651,402.746,138.676z"/>
<path d="M429.049,195.993c-5.521,0-10.001,4.48-10.001,10.001s4.481,10.001,10.001,10.001c5.521,0,10.001-4.481,10.001-10.001
	S434.57,195.993,429.049,195.993z"/>
<path d="M299.034,276.002c-5.521,0-10.001,4.481-10.001,10.001s4.481,10.001,10.001,10.001c5.521,0,10.001-4.48,10.001-10.001
	S304.555,276.002,299.034,276.002z"/>
<path d="M236.027,115.983c-5.521,0-10.001,4.481-10.001,10.001c0,5.521,4.481,10.001,10.001,10.001s10.001-4.481,10.001-10.001
	S241.548,115.983,236.027,115.983z"/>
<path d="M487.931,178.115c-15.927-16.578-38.77-31.144-68.012-43.408c5.842-8.341,9.13-18.375,9.13-28.724
	c0-27.573-22.433-50.006-50.006-50.006c-15.814,0-30.626,7.532-40.009,20.005c-13.924-0.006-27.011,5.67-36.423,15.722
	c-30.928-13.507-70.611-18.82-105.694-13.887c-43.719,6.159-83.891,28.916-113.117,64.08
	c-28.482,34.271-43.974,77.114-43.778,120.838C15.811,274.209,0,298.761,0,326.008c0,38.602,31.406,70.008,70.008,70.008h156.018
	c11.029,0,20.002,8.973,20.002,20.002c0,11.029-8.973,20.002-20.002,20.002h-93.011c-5.523,0-10.001,4.478-10.001,10.001
	s4.479,10.001,10.001,10.001h93.011c22.059,0,40.005-17.946,40.005-40.005c0-22.059-17.946-40.005-40.005-40.005H70.008
	c-27.573,0-50.006-22.433-50.006-50.006c0-17.341,8.961-33.155,23.144-42.194c9.987,31.343,42.16,52.195,69.537,52.195h113.299
	c0.011,0,0.022,0.001,0.033,0.001s0.023-0.001,0.035-0.001h192.998c5.523,0,10.001-4.478,10.001-10.001
	c0-22.119-14.435-40.93-34.379-47.505c4.59-4.679,11.01-7.521,17.907-7.521c1.814,0,3.614,0.19,5.355,0.566
	c31.539,6.793,52.487,3.719,64.505-0.054c17.455-5.475,29.052-21.452,29.544-40.706C512.297,218.507,508.38,199.4,487.931,178.115z
	 M409.047,105.982c0,8.073-3.154,15.581-8.76,21.18c-3.691-1.298-7.464-2.57-11.313-3.802c-0.137-2.657-0.479-5.318-1.027-7.966
	c-3.049-14.721-12.953-27.234-26.091-33.977c4.969-3.471,10.945-5.44,17.188-5.44C395.588,75.979,409.047,89.438,409.047,105.982z
	 M491.988,230.277c-0.274,10.731-6.228,19.212-15.539,22.133c-7.89,2.478-25.303,5.71-53.576-0.264l-40.238-15.481
	c-5.157-1.984-10.942,0.587-12.926,5.743c-1.983,5.156,0.588,10.942,5.743,12.925l10.817,4.161
	c-5.898,4.24-10.761,9.881-14.029,16.508h-33.202c-5.523,0-10.001,4.478-10.001,10.001s4.479,10.001,10.001,10.001h40.005
	c13.039,0,24.162,8.36,28.289,20.002H234.074c-4.372-15.823-13.953-30.187-27.53-41.034C191.229,262.738,172.22,256,153.018,256
	h-22.503c-5.523,0-10.001,4.477-10.001,10.001s4.479,10.001,10.001,10.001h22.503c26.572,0,50.941,16.862,59.994,40.005H112.683
	c-22.156,0-48.82-19.722-52.266-46.367c0.033-0.9-0.051-1.819-0.275-2.737c-0.003-0.014-0.009-0.027-0.012-0.041
	c-0.048-0.72-0.084-1.442-0.093-2.168C58.648,182.238,120,108.853,199.706,97.625c7.844-1.103,15.931-1.64,24.086-1.64
	c23.709,0,47.96,4.544,68.23,12.943c-1.97,5.429-2.987,11.188-2.987,17.057c0,27.573,22.433,50.006,50.006,50.006
	c5.523,0,10.001-4.478,10.001-10.001s-4.479-10.001-10.001-10.001c-16.544,0-30.003-13.46-30.003-30.003
	c0-5.809,1.657-11.432,4.8-16.28c0.045-0.067,0.09-0.136,0.134-0.205c6.343-9.638,17.437-14.724,28.938-13.283
	c0.854,0.111,1.629,0.237,2.369,0.383c11.267,2.232,20.76,11.629,23.084,22.85c0.698,3.374,0.859,6.763,0.479,10.071
	c-0.554,4.809,2.416,9.324,7.052,10.72c8.12,2.445,15.987,5.075,23.38,7.812C468.525,173.736,492.575,207.367,491.988,230.277z"/>
<path d="M190.899,119.624c-28.801,6.692-54.359,22.766-73.912,46.485c-3.513,4.262-2.905,10.565,1.356,14.079
	c1.862,1.536,4.115,2.284,6.355,2.284c2.884,0,5.746-1.241,7.724-3.64c16.733-20.299,38.519-34.037,63.002-39.725
	c5.381-1.25,8.729-6.625,7.479-12.005C201.654,121.722,196.278,118.373,190.899,119.624z"/>
<g>
</g>
<g>
</g>
<g>
</g>
<g>
</g>
<g>
</g>
<g>
</g>
<g>
</g>
<g>
</g>
<g>
</g>
<g>
</g>
<g>
</g>
<g>
</g>
<g>
</g>
<g>
</g>
<g>
</g>
</svg>
