<?xml version="1.0" encoding="iso-8859-1"?>
<!-- Generator: Adobe Illustrator 19.0.0, SVG Export Plug-In . SVG Version: 6.00 Build 0)  -->
<svg version="1.1" id="Capa_1" xmlns="http://www.w3.org/2000/svg" xmlns:xlink="http://www.w3.org/1999/xlink" x="0px" y="0px"
	 viewBox="0 0 512.007 512.007" style="enable-background:new 0 0 512.007 512.007;" xml:space="preserve">
<circle style="fill:#05CDFF;" cx="256.003" cy="256.003" r="256.003"/>
<path style="fill:#41A0D7;" d="M304.755,75.721h-48.757h-48.785c-11.944,0-21.626,9.682-21.626,21.626l0,0v151.97
	c-12.902,4.148-22.241,16.241-22.241,30.523l0,0v19.157l14.198,14.198V436.28l75.686,75.686c0.924,0.01,1.845,0.036,2.77,0.036
	c135.528,0,246.439-105.321,255.398-238.578L320.368,82.392l-0.01,0.01C316.115,77.978,310.396,75.721,304.755,75.721z"/>
<rect x="185.592" y="97.346" style="fill:#FA735F;" width="140.794" height="188.885"/>
<rect x="256.003" y="97.346" style="fill:#FA503C;" width="70.382" height="188.885"/>
<path style="fill:#917756;" d="M326.381,97.347H185.588c0-11.944,9.682-21.626,21.626-21.626h97.542
	C316.699,75.721,326.381,85.404,326.381,97.347z"/>
<path style="fill:#67573D;" d="M255.999,75.721h48.757c11.944,0,21.626,9.682,21.626,21.626h-70.383V75.721z"/>
<rect x="177.547" y="301.857" style="fill:#7D6849;" width="22.942" height="134.425"/>
<rect x="311.518" y="301.857" style="fill:#534531;" width="22.942" height="134.425"/>
<rect x="177.527" y="298.278" style="fill:#7D6849;" width="156.923" height="10.14"/>
<rect x="256.003" y="298.278" style="fill:#534531;" width="78.437" height="10.14"/>
<rect x="163.35" y="279.842" style="fill:#C8A06E;" width="185.306" height="19.157"/>
<rect x="256.003" y="279.842" style="fill:#A56941;" width="92.653" height="19.157"/>
<path style="fill:#A24729;" d="M348.654,279.84c0-17.706-14.353-32.06-32.06-32.06H195.406c-17.706,0-32.06,14.353-32.06,32.06
	H348.654z"/>
<path style="fill:#853318;" d="M348.654,279.84c0-17.706-14.353-32.06-32.06-32.06H256v32.06H348.654z"/>
<g>
</g>
<g>
</g>
<g>
</g>
<g>
</g>
<g>
</g>
<g>
</g>
<g>
</g>
<g>
</g>
<g>
</g>
<g>
</g>
<g>
</g>
<g>
</g>
<g>
</g>
<g>
</g>
<g>
</g>
</svg>
