<?xml version="1.0" encoding="iso-8859-1"?>
<!-- Generator: Adobe Illustrator 19.0.0, SVG Export Plug-In . SVG Version: 6.00 Build 0)  -->
<svg version="1.1" id="Capa_1" xmlns="http://www.w3.org/2000/svg" xmlns:xlink="http://www.w3.org/1999/xlink" x="0px" y="0px"
	 viewBox="0 0 512 512" style="enable-background:new 0 0 512 512;" xml:space="preserve">
<rect x="61.46" style="fill:#00F7FD;" width="390.08" height="512"/>
<rect x="120.26" y="55" style="fill:#E8336D;" width="272.48" height="438.33"/>
<rect x="256.5" style="fill:#00D8DF;" width="195.04" height="512"/>
<rect x="256.5" y="55" style="fill:#B02E65;" width="136.24" height="438.33"/>
<rect x="36.5" y="482" style="fill:#C7C5CC;" width="439" height="30"/>
<rect x="332" y="288.25" style="fill:#2A2A2C;" width="30" height="42.75"/>
<polygon style="fill:#FFB74F;" points="302.62,217.03 313.5,280.5 256.5,250.53 199.5,280.5 210.38,217.03 164.27,172.07 
	228,162.81 256.5,105.06 285,162.81 348.73,172.07 "/>
<polygon style="fill:#FFA71F;" points="313.5,280.5 256.5,250.53 256.5,105.06 285,162.81 348.73,172.07 302.62,217.03 "/>
<rect x="256.5" y="482" style="fill:#ADACB2;" width="219" height="30"/>
<g>
</g>
<g>
</g>
<g>
</g>
<g>
</g>
<g>
</g>
<g>
</g>
<g>
</g>
<g>
</g>
<g>
</g>
<g>
</g>
<g>
</g>
<g>
</g>
<g>
</g>
<g>
</g>
<g>
</g>
</svg>
