<?xml version="1.0" encoding="iso-8859-1"?>
<!-- Generator: Adobe Illustrator 19.0.0, SVG Export Plug-In . SVG Version: 6.00 Build 0)  -->
<svg version="1.1" id="Capa_1" xmlns="http://www.w3.org/2000/svg" xmlns:xlink="http://www.w3.org/1999/xlink" x="0px" y="0px"
	 viewBox="0 0 512 512" style="enable-background:new 0 0 512 512;" xml:space="preserve">
<g>
	<g transform="translate(8 1)">
		<g>
			<path style="fill:#8BC34A;" d="M308.668,211.48c21.36-24.057,55.808-31.574,85.248-18.603c0,0-2.133,39.339-30.72,50.859
				c-12.203,5.035-29.355,4.949-53.248-5.632"/>
			<g>
				<path style="fill:#C52828;" d="M366.183,143.213v0.085c9.944,5.108,22.047,3.211,29.952-4.693
					c7.905-7.905,9.801-20.008,4.693-29.952v-48.64c5.108-9.944,3.211-22.047-4.693-29.952c-7.905-7.905-20.008-9.801-29.952-4.693
					h-48.64c-9.944-5.108-22.047-3.211-29.952,4.693c-7.905,7.905-9.801,20.008-4.693,29.952v48.64
					c-5.108,9.944-3.211,22.047,4.693,29.952c7.905,7.905,20.008,9.801,29.952,4.693L366.183,143.213z"/>
				<path style="fill:#C52828;" d="M161.383,168.813v0.085c9.944,5.108,22.047,3.211,29.952-4.693
					c7.905-7.905,9.801-20.008,4.693-29.952v-48.64c5.108-9.944,3.211-22.047-4.693-29.952s-20.008-9.801-29.952-4.693h-48.64
					c-9.944-5.108-22.047-3.211-29.952,4.693S72.99,75.67,78.098,85.613v48.64c-5.108,9.944-3.211,22.047,4.693,29.952
					c7.905,7.905,20.008,9.801,29.952,4.693L161.383,168.813z"/>
			</g>
			<path style="fill:#3F51B5;" d="M446.482,324.205l-79.019,118.528V323.267l42.325-33.877
				C414.962,306.692,428.932,319.947,446.482,324.205z"/>
			<path style="fill:#1566C0;" d="M367.463,255v230.4c-0.028,9.414-7.652,17.039-17.067,17.067H137.063
				c-9.414-0.028-17.039-7.652-17.067-17.067V255c0.011-0.827,0.068-1.654,0.171-2.475c0.127-0.96,0.355-1.904,0.683-2.816
				c0.133-0.468,0.304-0.925,0.512-1.365c0.347-0.821,0.746-1.619,1.195-2.389c0.407-0.633,0.863-1.232,1.365-1.792
				c0.085-0.171,0.256-0.256,0.341-0.427c3.234-3.684,7.898-5.798,12.8-5.803h213.333c4.882-0.013,9.525,2.107,12.715,5.803
				c0.182,0.096,0.33,0.245,0.427,0.427c0.502,0.56,0.959,1.159,1.365,1.792c0.449,0.77,0.848,1.568,1.195,2.389
				c0.208,0.44,0.379,0.897,0.512,1.365c0.327,0.912,0.556,1.856,0.683,2.816C367.395,253.346,367.452,254.173,367.463,255z"/>
			<path style="fill:#2296F3;" d="M341.863,255v230.4c0.434,8.919-6.388,16.528-15.301,17.067H135.297
				c-8.913-0.539-15.735-8.148-15.301-17.067V255c0-0.853,0.077-1.707,0.153-2.475c0.112-0.956,0.317-1.899,0.612-2.816
				c0.119-0.466,0.272-0.922,0.459-1.365c0.309-0.817,0.667-1.615,1.071-2.389c0.362-0.628,0.771-1.227,1.224-1.792
				c0.076-0.171,0.229-0.256,0.306-0.427c2.728-3.597,6.961-5.738,11.476-5.803h191.264c4.497,0.049,8.713,2.195,11.399,5.803
				c0.167,0.101,0.3,0.249,0.382,0.427c0.454,0.565,0.863,1.164,1.224,1.792c0.404,0.774,0.762,1.572,1.071,2.389
				c0.187,0.443,0.34,0.899,0.459,1.365c0.294,0.917,0.499,1.86,0.612,2.816C341.786,253.293,341.863,254.147,341.863,255z"/>
			<g>
				<path style="fill:#CC4B4C;" d="M121.362,248.344c-0.171,0.427-0.341,0.853-0.512,1.365"/>
				<path style="fill:#CC4B4C;" d="M367.463,255c-0.011-0.827-0.068-1.654-0.171-2.475"/>
				<path style="fill:#CC4B4C;" d="M364.903,245.955c-0.427-0.597-0.853-1.195-1.365-1.792"/>
			</g>
			<path style="fill:#2296F3;" d="M495.463,310.77c-20.113,20.113-52.723,20.113-72.837,0s-20.113-52.723,0-72.837L495.463,310.77z"
				/>
			<g>
				<path style="fill:#F44335;" d="M115.73,72.984c-2.771-4.237-4.253-9.188-4.267-14.251c-0.019-2.643,0.414-5.269,1.28-7.765
					c3.345-10.616,13.19-17.835,24.32-17.835s20.975,7.219,24.32,17.835c0.866,2.496,1.299,5.123,1.28,7.765
					c-0.014,5.063-1.496,10.013-4.267,14.251"/>
				<path style="fill:#F44335;" d="M158.396,146.883c2.771,4.237,4.253,9.188,4.267,14.251c0.012,2.614-0.42,5.211-1.28,7.68v0.085
					c-3.345,10.616-13.19,17.835-24.32,17.835s-20.975-7.219-24.32-17.835c-0.866-2.496-1.299-5.123-1.28-7.765
					c0.014-5.063,1.496-10.013,4.267-14.251"/>
				<path style="fill:#F44335;" d="M100.114,88.6c-4.237-2.771-9.188-4.253-14.251-4.267c-2.643-0.019-5.269,0.414-7.765,1.28
					c-10.616,3.345-17.835,13.19-17.835,24.32s7.219,20.975,17.835,24.32c2.496,0.866,5.123,1.299,7.765,1.28
					c5.063-0.014,10.013-1.496,14.251-4.267"/>
				<path style="fill:#F44335;" d="M174.012,88.6c4.238-2.771,9.188-4.253,14.251-4.267c2.643-0.019,5.269,0.414,7.765,1.28
					c10.616,3.345,17.835,13.19,17.835,24.32s-7.219,20.975-17.835,24.32c-2.496,0.866-5.123,1.299-7.765,1.28
					c-5.063-0.014-10.013-1.496-14.251-4.267"/>
				<path style="fill:#F44335;" d="M320.53,47.384c-2.771-4.237-4.253-9.188-4.267-14.251c-0.019-2.643,0.414-5.269,1.28-7.765
					c3.345-10.616,13.19-17.835,24.32-17.835c11.13,0,20.974,7.219,24.32,17.835c0.866,2.496,1.299,5.123,1.28,7.765
					c-0.014,5.063-1.496,10.013-4.267,14.251"/>
				<path style="fill:#F44335;" d="M363.196,121.283c2.771,4.237,4.253,9.188,4.267,14.251c0.012,2.614-0.42,5.211-1.28,7.68v0.085
					c-3.345,10.616-13.19,17.835-24.32,17.835c-11.13,0-20.975-7.219-24.32-17.835c-0.866-2.496-1.299-5.123-1.28-7.765
					c0.014-5.063,1.496-10.013,4.267-14.251"/>
				<path style="fill:#F44335;" d="M304.914,63c-4.237-2.771-9.188-4.253-14.251-4.267c-2.643-0.019-5.269,0.414-7.765,1.28
					c-10.616,3.345-17.835,13.19-17.835,24.32s7.219,20.975,17.835,24.32c2.496,0.866,5.123,1.299,7.765,1.28
					c5.063-0.014,10.013-1.496,14.251-4.267"/>
				<path style="fill:#F44335;" d="M378.812,63c4.237-2.771,9.188-4.253,14.251-4.267c2.643-0.019,5.269,0.414,7.765,1.28
					c10.616,3.345,17.835,13.19,17.835,24.32s-7.219,20.975-17.835,24.32c-2.496,0.866-5.123,1.299-7.765,1.28
					c-5.063-0.014-10.013-1.496-14.251-4.267"/>
			</g>
			<path style="fill:#8BC34A;" d="M282.13,237.933c-85.333-17.067-42.667-85.333-42.667-85.333
				c68.267,17.067,59.733,85.333,59.733,85.333h8.533"/>
		</g>
		<g>
			<path style="fill:#FFFFFF;" d="M243.73,285.241c0,0-25.6,34.152-25.6,48.789c1.208,13.237,12.308,23.37,25.6,23.37
				c13.292,0,24.392-10.133,25.6-23.37C269.33,319.393,243.73,285.241,243.73,285.241z"/>
			<path style="fill:#FFFFFF;" d="M196.796,379.108c0,0-25.6,34.152-25.6,48.789c0.65,13.507,12.09,23.951,25.6,23.37
				c13.51,0.581,24.95-9.863,25.6-23.37C222.396,413.26,196.796,379.108,196.796,379.108z"/>
			<path style="fill:#FFFFFF;" d="M290.663,379.108c0,0-25.6,34.152-25.6,48.789c1.208,13.237,12.308,23.37,25.6,23.37
				s24.392-10.133,25.6-23.37C316.263,413.26,290.663,379.108,290.663,379.108z"/>
		</g>
		<g>
			<circle style="fill:#FFEB3A;" cx="137.063" cy="109.933" r="42.667"/>
			<circle style="fill:#FFEB3A;" cx="341.863" cy="84.333" r="42.667"/>
		</g>
	</g>
	<g>
		<path d="M436.663,232.9c-1.6-1.601-3.77-2.5-6.033-2.5c-2.263,0-4.433,0.899-6.033,2.5c-11.296,11.233-17.628,26.519-17.583,42.45
			c-0.002,3.964,0.384,7.919,1.153,11.808l-24.17,19.347V256c-0.027-2.648-0.466-5.276-1.303-7.789
			c25.322-16.572,27.653-52.208,27.736-53.869c0.205-3.694-1.997-7.098-5.45-8.425c-23.804-10.4-51.132-8.876-73.631,4.106
			l5.726-21.924c15.184,6.295,32.694,0.711,41.432-13.211c11.43,2.537,23.364-0.943,31.64-9.224
			c8.276-8.282,11.747-20.218,9.203-31.646c9.862-6.211,15.846-17.048,15.848-28.702s-5.978-22.494-15.837-28.708
			c2.543-11.413-0.929-23.333-9.202-31.596s-20.199-11.718-31.608-9.16C372.339,5.987,361.501,0.002,349.845,0
			s-22.496,5.979-28.71,15.841c-11.412-2.542-23.332,0.93-31.595,9.202s-11.719,20.197-9.163,31.606
			c-9.862,6.21-15.846,17.048-15.848,28.702c-0.002,11.654,5.978,22.494,15.837,28.708c-2.634,11.441,0.811,23.432,9.115,31.731
			c8.305,8.299,20.298,11.736,31.737,9.094c0.394,0.624,0.742,1.28,1.174,1.873l-11.42,43.73
			c-8.85-28.243-32.414-49.4-61.443-55.168c-3.586-0.879-7.332,0.635-9.3,3.758c-0.833,1.329-20.208,32.887-7.858,61.521
			c3.474,7.816,8.868,14.627,15.679,19.8h-54.174l-16.419-49.263c10.973,1.166,21.837-3.022,29.188-11.252
			c7.352-8.23,10.293-19.495,7.902-30.268c9.862-6.21,15.846-17.048,15.848-28.702c0.002-11.654-5.978-22.494-15.837-28.708
			c2.543-11.413-0.928-23.333-9.202-31.596c-8.273-8.262-20.199-11.718-31.608-9.159c-6.21-9.864-17.049-15.85-28.705-15.852
			c-11.656-0.002-22.497,5.98-28.71,15.842c-11.412-2.542-23.332,0.929-31.594,9.201S73.021,70.84,75.578,82.249
			c-9.862,6.21-15.846,17.048-15.848,28.702c-0.002,11.654,5.978,22.494,15.837,28.708c-2.634,11.441,0.811,23.432,9.115,31.731
			c8.305,8.299,20.298,11.736,31.737,9.094c9.902,15.711,30.623,20.493,46.408,10.71l13.066,39.204h-30.831
			c-14.132,0.015-25.585,11.468-25.6,25.6v6.15c-0.958-1.087-1.892-2.192-2.925-3.226c-17.275-17.27-42.461-23.994-66.044-17.632
			S8.522,266.132,2.276,289.747s0.6,48.767,17.954,65.958l99.233,91.76V486.4c0.015,14.132,11.468,25.585,25.6,25.6h213.333
			c14.132-0.015,25.585-11.468,25.6-25.6v-40.083l74.407-111.615c2.861,0.434,5.749,0.664,8.643,0.686
			c15.93,0.044,31.216-6.288,42.45-17.583c1.601-1.6,2.5-3.77,2.5-6.033c0-2.263-0.899-4.433-2.5-6.033L436.663,232.9z
			 M88.63,127.108c-7.108-2.259-11.909-8.894-11.832-16.352c0.077-7.458,5.013-13.993,12.166-16.106
			c2.508-0.793,5.176-0.94,7.756-0.427c-3.821,10.849-3.808,22.681,0.037,33.522C94.038,128.242,91.237,128.023,88.63,127.108z
			 M110.93,110.933c0-18.851,15.282-34.133,34.133-34.133s34.133,15.282,34.133,34.133s-15.282,34.133-34.133,34.133
			C126.22,145.047,110.95,129.776,110.93,110.933z M201.496,94.758c7.108,2.259,11.909,8.894,11.832,16.352
			c-0.077,7.458-5.013,13.993-12.166,16.106c-2.508,0.798-5.177,0.946-7.758,0.431c3.822-10.848,3.81-22.678-0.033-33.519
			C196.089,93.633,198.888,93.85,201.496,94.758z M193.271,159.2c-3.712,3.778-8.976,5.603-14.23,4.933
			c0.041-0.669,0.155-1.328,0.155-2c-0.029-3.878-0.716-7.722-2.032-11.37c2.842-2.295,5.433-4.885,7.728-7.727
			c3.648,1.316,7.493,2.002,11.371,2.03c0.664,0,1.274-0.116,1.924-0.153C198.879,150.183,197.059,155.472,193.271,159.2z
			 M193.338,62.729c3.774,3.734,5.571,9.025,4.851,14.285c-4.507-0.249-9.019,0.37-13.293,1.822
			c-2.296-2.844-4.888-5.436-7.732-7.733c1.316-3.648,2.003-7.492,2.032-11.37c0-0.665-0.117-1.276-0.153-1.927
			C184.316,57.118,189.607,58.94,193.338,62.729L193.338,62.729z M145.063,42.667c7.531-0.005,14.163,4.957,16.283,12.183
			c0.539,1.571,0.803,3.223,0.783,4.883c-0.061,0.954-0.202,1.901-0.423,2.832c-10.775-3.776-22.513-3.776-33.288,0
			c-0.221-0.93-0.362-1.878-0.423-2.832c-0.01-1.782,0.295-3.553,0.9-5.229C131.091,47.429,137.655,42.623,145.063,42.667z
			 M96.855,62.667c3.72-3.761,8.989-5.559,14.232-4.858c-0.037,0.647-0.157,1.266-0.157,1.925c0.029,3.878,0.716,7.722,2.032,11.37
			c-2.842,2.295-5.433,4.885-7.728,7.727c-3.648-1.316-7.493-2.002-11.371-2.03c-0.664,0-1.273,0.116-1.923,0.153
			C91.247,71.683,93.067,66.395,96.855,62.667z M96.788,159.138c-3.757-3.72-5.552-8.987-4.851-14.227
			c0.647,0.037,1.266,0.156,1.925,0.156c3.878-0.028,7.723-0.715,11.371-2.03c2.295,2.842,4.885,5.432,7.728,7.727
			c-1.316,3.648-2.003,7.492-2.032,11.37c0,0.665,0.117,1.274,0.153,1.925C105.81,164.748,100.519,162.927,96.788,159.138
			L96.788,159.138z M128.779,167.017c-0.538-1.571-0.803-3.223-0.783-4.883c0.061-0.954,0.202-1.901,0.423-2.832
			c10.775,3.776,22.513,3.776,33.288,0c0.221,0.93,0.362,1.878,0.423,2.832c0.016,1.63-0.249,3.251-0.783,4.792l-0.086,0.293
			c-0.083,0.188-0.108,0.394-0.179,0.589c-2.422,6.966-9.067,11.569-16.439,11.388C137.27,179.015,130.858,174.092,128.779,167.017
			L128.779,167.017z M392.554,199.667c-1.858,10.3-7.592,30.325-24.617,37.183c-11.675,4.813-27.333,2.954-46.533-5.55
			c-0.26-0.071-0.524-0.129-0.79-0.174l3.727-14.271C341.687,198.152,368.418,191.416,392.554,199.667L392.554,199.667z
			 M293.43,101.508c-7.108-2.259-11.909-8.894-11.832-16.352s5.013-13.993,12.166-16.106c2.509-0.791,5.176-0.938,7.756-0.427
			c-3.821,10.848-3.808,22.679,0.036,33.519C298.837,102.637,296.038,102.419,293.43,101.508z M406.296,69.158
			c7.108,2.259,11.909,8.894,11.832,16.352c-0.077,7.458-5.013,13.993-12.166,16.106c-2.508,0.796-5.176,0.943-7.757,0.429
			c3.82-10.847,3.809-22.676-0.033-33.515C400.889,68.034,403.688,68.25,406.296,69.158L406.296,69.158z M383.996,85.333
			c0,18.851-15.282,34.133-34.133,34.133c-18.851,0-34.133-15.282-34.133-34.133S331.012,51.2,349.863,51.2
			C368.706,51.22,383.976,66.49,383.996,85.333z M349.863,153.6c-7.531,0.005-14.163-4.957-16.283-12.183
			c-0.539-1.571-0.803-3.223-0.783-4.883c0.061-0.954,0.202-1.901,0.423-2.832c10.775,3.776,22.513,3.776,33.288,0
			c0.221,0.93,0.362,1.878,0.423,2.832c0.016,1.63-0.249,3.251-0.783,4.792c-0.092,0.275-0.183,0.563-0.25,0.854
			C363.568,149.041,357.109,153.642,349.863,153.6z M398.071,133.6c-3.712,3.778-8.977,5.603-14.23,4.933
			c0.041-0.669,0.155-1.328,0.155-2c-0.029-3.878-0.716-7.722-2.032-11.37c2.842-2.295,5.433-4.885,7.728-7.727
			c3.648,1.316,7.493,2.002,11.371,2.03c0.664,0,1.274-0.116,1.924-0.153C403.679,124.583,401.859,129.872,398.071,133.6z
			 M398.138,37.129c3.774,3.734,5.571,9.026,4.851,14.286c-4.506-0.249-9.018,0.37-13.292,1.821
			c-2.296-2.844-4.889-5.437-7.733-7.734c1.316-3.648,2.003-7.492,2.032-11.37c0-0.665-0.117-1.276-0.153-1.927
			C389.116,31.517,394.407,33.339,398.138,37.129L398.138,37.129z M349.863,17.067c7.531-0.005,14.163,4.957,16.283,12.183
			c0.539,1.571,0.803,3.223,0.783,4.883c-0.061,0.954-0.202,1.901-0.423,2.832c-10.775-3.776-22.513-3.776-33.288,0
			c-0.221-0.93-0.362-1.878-0.423-2.832c-0.01-1.782,0.295-3.553,0.9-5.229C335.891,21.829,342.456,17.023,349.863,17.067z
			 M301.655,37.067c3.718-3.764,8.988-5.564,14.232-4.859c-0.037,0.648-0.157,1.267-0.157,1.926
			c0.029,3.878,0.716,7.722,2.032,11.37c-2.842,2.295-5.433,4.885-7.728,7.727c-3.648-1.316-7.493-2.002-11.371-2.03
			c-0.664,0-1.273,0.116-1.923,0.153C296.047,46.083,297.867,40.795,301.655,37.067z M301.588,133.538
			c-3.757-3.72-5.552-8.987-4.85-14.227c0.647,0.037,1.266,0.156,1.925,0.156c3.878-0.028,7.723-0.715,11.371-2.03
			c2.295,2.842,4.885,5.432,7.728,7.727c-1.316,3.648-2.003,7.492-2.032,11.37c0,0.665,0.117,1.274,0.153,1.925
			C310.61,139.148,305.319,137.327,301.588,133.538L301.588,133.538z M248.071,203.908c-4.253-13.348-2.912-27.85,3.717-40.192
			c28.981,9.033,48.33,36.347,47.238,66.684h-7.934C268.157,225.685,253.669,216.786,248.071,203.908L248.071,203.908z
			 M32.055,343.404c-16.388-16.387-19.726-41.738-8.138-61.809s35.212-29.856,57.597-23.857s37.951,26.286,37.949,49.461v117.022
			L32.055,343.404z M366.93,486.4c-0.005,4.711-3.822,8.529-8.533,8.533H145.063c-4.711-0.005-8.529-3.822-8.533-8.533V256
			c0.005-4.711,3.822-8.529,8.533-8.533h42.64l0.027,0.004l0.026-0.004H315.73l0.11-0.022c11.93,5.557,24.861,8.643,38.015,9.072
			c4.332-0.034,8.645-0.569,12.853-1.597c0.103,0.353,0.178,0.715,0.222,1.08V486.4z M383.996,415.549v-87.181l30.334-24.281
			c6.065,11.14,15.52,20.061,26.994,25.468L383.996,415.549z M467.046,318.321c-15.826-0.01-30.366-8.714-37.852-22.657
			c-7.486-13.943-6.707-30.871,2.027-44.068l59.575,59.579C483.762,315.856,475.496,318.343,467.046,318.321z"/>
		<path d="M285.863,335.029c0-16.638-22.741-47.825-27.308-53.904c-1.678-2.042-4.182-3.225-6.825-3.225s-5.147,1.183-6.825,3.225
			c-4.567,6.079-27.308,37.267-27.308,53.904c1.214,17.958,16.135,31.904,34.133,31.904S284.649,352.987,285.863,335.029
			L285.863,335.029z M251.73,349.867c-8.792,0.561-16.4-6.053-17.067-14.837c0-5.829,7.975-20.529,17.067-34.038
			c9.092,13.508,17.067,28.208,17.067,34.038C268.129,343.814,260.521,350.428,251.73,349.867z"/>
		<path d="M197.971,374.992c-4.567,6.079-27.308,37.267-27.308,53.904c0.655,18.218,15.913,32.479,34.133,31.904
			c18.22,0.575,33.478-13.686,34.133-31.904c0-16.638-22.741-47.825-27.308-53.904c-1.678-2.042-4.182-3.225-6.825-3.225
			S199.649,372.95,197.971,374.992z M204.796,443.733c-8.792,0.561-16.4-6.053-17.067-14.837c0-5.829,7.975-20.529,17.067-34.038
			c9.092,13.508,17.067,28.208,17.067,34.038C221.196,437.68,213.588,444.294,204.796,443.733z"/>
		<path d="M291.838,374.992c-4.567,6.079-27.308,37.267-27.308,53.904c1.214,17.958,16.135,31.904,34.133,31.904
			s32.919-13.946,34.133-31.904c0-16.638-22.741-47.825-27.308-53.904c-1.678-2.042-4.182-3.225-6.825-3.225
			C296.02,371.767,293.516,372.95,291.838,374.992z M298.663,443.733c-8.792,0.561-16.4-6.053-17.067-14.837
			c0-5.829,7.975-20.529,17.067-34.038c9.092,13.508,17.067,28.208,17.067,34.038C315.063,437.68,307.455,444.294,298.663,443.733z"
			/>
	</g>
</g>
<g>
</g>
<g>
</g>
<g>
</g>
<g>
</g>
<g>
</g>
<g>
</g>
<g>
</g>
<g>
</g>
<g>
</g>
<g>
</g>
<g>
</g>
<g>
</g>
<g>
</g>
<g>
</g>
<g>
</g>
</svg>
