<?xml version="1.0" encoding="iso-8859-1"?>
<!-- Generator: Adobe Illustrator 21.0.0, SVG Export Plug-In . SVG Version: 6.00 Build 0)  -->
<svg version="1.1" id="Capa_1" xmlns="http://www.w3.org/2000/svg" xmlns:xlink="http://www.w3.org/1999/xlink" x="0px" y="0px"
	 viewBox="0 0 512 512" style="enable-background:new 0 0 512 512;" xml:space="preserve">
<linearGradient id="SVGID_1_" gradientUnits="userSpaceOnUse" x1="74.9807" y1="439.0193" x2="437.0193" y2="76.9807" gradientTransform="matrix(1 0 0 -1 0 514)">
	<stop  offset="0" style="stop-color:#E6974A"/>
	<stop  offset="1" style="stop-color:#984B04"/>
</linearGradient>
<circle style="fill:url(#SVGID_1_);" cx="256" cy="256" r="256"/>
<linearGradient id="SVGID_2_" gradientUnits="userSpaceOnUse" x1="171.766" y1="112.497" x2="340.234" y2="112.497" gradientTransform="matrix(1 0 0 -1 0 514)">
	<stop  offset="0" style="stop-color:#D7D7D9"/>
	<stop  offset="1" style="stop-color:#8B8892"/>
</linearGradient>
<path style="fill:url(#SVGID_2_);" d="M316.845,422.501h-121.69c-12.864,0-23.389-10.525-23.389-23.388v-18.608h168.468v18.608
	C340.234,411.977,329.709,422.501,316.845,422.501z"/>
<linearGradient id="SVGID_3_" gradientUnits="userSpaceOnUse" x1="129.219" y1="331.9972" x2="382.78" y2="331.9972" gradientTransform="matrix(1 0 0 -1 0 514)">
	<stop  offset="0" style="stop-color:#D7D7D9"/>
	<stop  offset="1" style="stop-color:#8B8892"/>
</linearGradient>
<path style="fill:url(#SVGID_3_);" d="M343.873,131.136c8.905-0.361,18.947-5.863,28.823-18.162
	c21.722-27.05-13.115-50.411-30.738-46.312c-13.596,3.162-19.87,28.996-22.029,40.644c-16.751-11.932-37.727-18.921-63.926-18.922
	l0,0c-0.001,0-0.002,0-0.003,0s-0.002,0-0.003,0l0,0c-26.199,0.001-47.175,6.99-63.926,18.922
	c-2.159-11.648-8.433-37.482-22.029-40.644c-17.623-4.098-52.46,19.263-30.738,46.312c9.876,12.299,19.918,17.801,28.823,18.162
	c-31.077,42.05-38.908,108.249-38.908,166.677h126.778h0.005H382.78C382.78,239.385,374.95,173.186,343.873,131.136z"/>
<g>
	
		<linearGradient id="SVGID_4_" gradientUnits="userSpaceOnUse" x1="210.5" y1="104.15" x2="297.01" y2="104.15" gradientTransform="matrix(1 0 0 -1 0 514)">
		<stop  offset="0" style="stop-color:#FFFFFF"/>
		<stop  offset="1" style="stop-color:#FDF3CA"/>
	</linearGradient>
	<path style="fill:url(#SVGID_4_);" d="M221.66,435h-20.153c-6.6,0-12-5.4-12-12v-26.3c0-6.6,5.4-12,12-12h20.153
		c6.6,0,12,5.4,12,12V423C233.66,429.6,228.26,435,221.66,435z"/>
	
		<linearGradient id="SVGID_5_" gradientUnits="userSpaceOnUse" x1="210.5" y1="104.15" x2="297.01" y2="104.15" gradientTransform="matrix(1 0 0 -1 0 514)">
		<stop  offset="0" style="stop-color:#FFFFFF"/>
		<stop  offset="1" style="stop-color:#FDF3CA"/>
	</linearGradient>
	<path style="fill:url(#SVGID_5_);" d="M310.493,435H290.34c-6.6,0-12-5.4-12-12v-26.3c0-6.6,5.4-12,12-12h20.153
		c6.6,0,12,5.4,12,12V423C322.493,429.6,317.093,435,310.493,435z"/>
</g>
<linearGradient id="SVGID_6_" gradientUnits="userSpaceOnUse" x1="105.895" y1="182.7855" x2="406.105" y2="182.7855" gradientTransform="matrix(1 0 0 -1 0 514)">
	<stop  offset="0" style="stop-color:#FFFFFF"/>
	<stop  offset="1" style="stop-color:#C8C5CB"/>
</linearGradient>
<path style="fill:url(#SVGID_6_);" d="M348.938,401.503H163.062c-31.442,0-57.167-25.725-57.167-57.167v-26.243
	c0-31.442,25.725-57.167,57.167-57.167h185.876c31.442,0,57.167,25.725,57.167,57.167v26.243
	C406.105,375.778,380.38,401.503,348.938,401.503z"/>
<g>
	
		<linearGradient id="SVGID_7_" gradientUnits="userSpaceOnUse" x1="187.5" y1="201.54" x2="328.56" y2="201.54" gradientTransform="matrix(1 0 0 -1 0 514)">
		<stop  offset="0" style="stop-color:#ACABB1"/>
		<stop  offset="1" style="stop-color:#56545B"/>
	</linearGradient>
	<circle style="fill:url(#SVGID_7_);" cx="188.08" cy="312.46" r="23.668"/>
	
		<linearGradient id="SVGID_8_" gradientUnits="userSpaceOnUse" x1="187.5" y1="201.54" x2="328.56" y2="201.54" gradientTransform="matrix(1 0 0 -1 0 514)">
		<stop  offset="0" style="stop-color:#ACABB1"/>
		<stop  offset="1" style="stop-color:#56545B"/>
	</linearGradient>
	<circle style="fill:url(#SVGID_8_);" cx="323.92" cy="312.46" r="23.668"/>
</g>
<path style="fill:#77767E;" d="M187.565,110.7c-5.619,4.5-10.722,9.603-15.357,15.197c-5.41-0.516-11.89-3.934-17.631-11.078
	c-13.303-16.562,6.615-30.025,17.41-27.517C180.064,89.183,185.794,103.433,187.565,110.7z"/>
<g>
	<path style="fill:#56545B;" d="M357.424,114.819c-5.742,7.144-12.222,10.562-17.632,11.078
		c-4.635-5.594-9.738-10.697-15.357-15.197c1.771-7.267,7.5-21.517,15.578-23.398C350.809,84.794,370.727,98.257,357.424,114.819z"
		/>
	<circle style="fill:#56545B;" cx="213.86" cy="196.47" r="14.462"/>
</g>
<circle style="fill:#29292B;" cx="298.14" cy="196.47" r="14.462"/>
<g>
</g>
<g>
</g>
<g>
</g>
<g>
</g>
<g>
</g>
<g>
</g>
<g>
</g>
<g>
</g>
<g>
</g>
<g>
</g>
<g>
</g>
<g>
</g>
<g>
</g>
<g>
</g>
<g>
</g>
</svg>
