<?xml version="1.0" encoding="iso-8859-1"?>
<!-- Generator: Adobe Illustrator 19.0.0, SVG Export Plug-In . SVG Version: 6.00 Build 0)  -->
<svg version="1.1" id="Capa_1" xmlns="http://www.w3.org/2000/svg" xmlns:xlink="http://www.w3.org/1999/xlink" x="0px" y="0px"
	 viewBox="0 0 511.999 511.999" style="enable-background:new 0 0 511.999 511.999;" xml:space="preserve">
<path style="fill:#F1BBC5;" d="M247.47,358.398v102.398H409.6c51.814-0.06,93.805-42.052,93.865-93.865v-8.533H247.47z"/>
<path style="fill:#FAE8EC;" d="M375.468,136.535c-98.917,0.111-179.086,80.28-179.197,179.197v8.533h85.332
	c98.917-0.111,179.086-80.28,179.197-179.197v-8.533H375.468z"/>
<path style="fill:#D9415D;" d="M264.536,273.066c-42.393-0.051-76.748-34.406-76.799-76.799v-17.066
	c0-32.989-26.743-59.732-59.732-59.732s-59.732,26.743-59.732,59.732v136.531c0,108.397,87.866,196.263,196.263,196.263
	s196.263-87.866,196.263-196.263v-42.666H264.536z"/>
<path style="fill:#F1BBC5;" d="M426.667,187.734c-98.917,0.111-179.086,80.28-179.197,179.197v8.533h85.332
	c98.917-0.111,179.086-80.28,179.197-179.197v-8.533H426.667z"/>
<g>
	<path style="fill:#689BA6;" d="M110.939,34.136c-23.552,0.026-42.64,19.114-42.666,42.666v8.533h42.666
		c23.552-0.026,42.64-19.114,42.666-42.666v-8.533C153.605,34.136,110.939,34.136,110.939,34.136z"/>
	<path style="fill:#689BA6;" d="M42.673,85.336h8.533V42.67C51.181,19.118,32.092,0.029,8.54,0.004H0.007V42.67
		C0.033,66.221,19.122,85.301,42.673,85.336z"/>
	<path style="fill:#689BA6;" d="M0.007,145.068v8.533H34.14c23.552-0.026,42.64-19.114,42.666-42.666v-8.533H42.673
		C19.122,102.428,0.033,121.516,0.007,145.068z"/>
</g>
<path style="fill:#E88D9E;" d="M81.286,180.472c-2.517-1.553-5.658-1.698-8.303-0.375L4.718,214.229
	c-4.215,2.108-5.922,7.236-3.814,11.452c0.828,1.655,2.167,2.995,3.814,3.814l68.266,34.133c4.215,2.108,9.344,0.41,11.452-3.806
	c0.597-1.186,0.905-2.492,0.905-3.823v-68.266C85.339,184.773,83.803,182.025,81.286,180.472z"/>
<path d="M460.706,321.705v-0.265c32.93-33.331,51.37-78.318,51.293-125.173v-8.533h-56.404c3.439-13.96,5.188-28.288,5.205-42.666
	v-8.533h-85.332c-73.326-0.196-139.296,44.484-166.337,112.638c-13.738-14.182-21.41-33.16-21.393-52.906v-17.066
	c0-32.989-26.743-59.732-59.732-59.732s-59.732,26.743-59.732,59.732v3.26l-51.199,25.6v-54.459H34.14
	c23.552-0.026,42.64-19.114,42.666-42.666v-8.533H42.673c-7.091,0.051-14.054,1.894-20.249,5.35
	c7.381-13.756,21.708-22.357,37.316-22.417h51.199c23.552-0.026,42.64-19.114,42.666-42.666v-8.533h-42.666
	c-20.266,0.026-37.734,14.276-41.813,34.133H59.74c-2.859,0.026-5.709,0.247-8.533,0.683V42.67
	C51.181,19.118,32.092,0.029,8.54,0.004H0.007V42.67C0.058,58.746,9.163,73.415,23.542,80.6
	C8.728,91.863,0.024,109.391,0.007,128.002v136.531h17.066v-28.859l51.199,25.6v54.459
	c-0.111,108.286,87.585,196.152,195.871,196.263c48.946,0.051,96.152-18.21,132.316-51.199H409.6
	c51.814-0.06,93.805-42.052,93.865-93.865v-8.533h-47.427c2.654-12.015,4.173-24.251,4.54-36.548L460.706,321.705z M110.939,51.203
	h24.14c-3.627,10.223-13.295,17.049-24.14,17.066h-24.14C90.433,58.046,100.093,51.211,110.939,51.203z M17.074,42.67v-24.14
	c10.223,3.627,17.058,13.295,17.066,24.14v24.14C23.917,63.175,17.082,53.515,17.074,42.67z M42.673,119.468H58.28
	c-3.627,10.223-13.295,17.049-24.14,17.066H18.533C22.168,126.312,31.827,119.477,42.673,119.468z M68.273,242.193l-40.652-20.326
	l40.652-20.326V242.193z M375.468,153.601h68.044c-0.597,11.537-2.432,22.98-5.47,34.133h-11.375c-3.925,0-7.833,0.128-11.725,0.393
	c-1.314,0.085-2.603,0.265-3.908,0.384c-2.56,0.23-5.12,0.435-7.68,0.777c-1.57,0.205-3.115,0.521-4.668,0.768
	c-2.253,0.358-4.523,0.691-6.758,1.135c-1.655,0.333-3.277,0.759-4.924,1.135c-2.108,0.486-4.267,0.939-6.315,1.493
	c-1.707,0.452-3.319,0.99-4.975,1.485c-2.014,0.606-4.045,1.178-6.033,1.852c-1.707,0.563-3.311,1.22-4.966,1.835
	c-1.929,0.717-3.874,1.408-5.777,2.193c-1.707,0.683-3.294,1.451-4.932,2.184c-1.843,0.853-3.703,1.63-5.512,2.509
	c-1.63,0.794-3.226,1.707-4.83,2.509c-1.775,0.93-3.558,1.852-5.299,2.842c-1.587,0.905-3.123,1.869-4.685,2.816
	c-1.707,1.041-3.413,2.065-5.12,3.166c-1.527,1.007-3.021,2.065-4.514,3.123c-1.63,1.143-3.268,2.278-4.864,3.473
	c-1.468,1.101-2.893,2.261-4.326,3.413c-1.434,1.152-3.123,2.492-4.642,3.789s-2.748,2.44-4.113,3.678
	c-1.365,1.237-2.952,2.688-4.395,4.087c-1.442,1.399-2.56,2.62-3.883,3.942s-2.799,2.901-4.147,4.403
	c-1.229,1.357-2.415,2.756-3.601,4.164c-1.323,1.553-2.628,3.115-3.9,4.719c-1.135,1.442-2.236,2.91-3.336,4.386
	c-1.229,1.647-2.44,3.311-3.61,5.009c-1.041,1.51-2.048,3.055-3.055,4.608c-0.666,1.033-1.382,2.014-2.031,3.063h-9.608
	c-3.388-0.017-6.767-0.265-10.12-0.725c-0.469-0.06-0.939-0.102-1.408-0.171c-3.14-0.486-6.246-1.161-9.301-2.039L242,269.627
	c-3.021-0.93-5.982-2.048-8.857-3.345c-0.469-0.213-0.93-0.452-1.399-0.674c-3.004-1.417-5.914-3.029-8.712-4.821l-0.085-0.06
	C245.968,196.318,307.074,153.405,375.468,153.601z M255.696,313.172c-5.461,17.399-8.235,35.524-8.226,53.759v8.533h85.332
	c5.495,0,10.94-0.299,16.35-0.794c1.758-0.162,3.482-0.435,5.231-0.649c3.652-0.435,7.279-0.93,10.88-1.587
	c2.005-0.367,3.994-0.853,5.973-1.246c3.311-0.725,6.605-1.527,9.864-2.44c2.005-0.563,4.002-1.143,5.973-1.775
	c3.251-1.033,6.46-2.184,9.643-3.413c1.852-0.708,3.712-1.382,5.538-2.159c3.533-1.493,6.997-3.149,10.428-4.864
	c1.365-0.683,2.756-1.28,4.104-1.997c4.719-2.517,9.335-5.239,13.841-8.175c0.853-0.589,1.707-1.263,2.62-1.869
	c3.055-2.082,6.11-4.164,9.045-6.434c-1.118,8.96-2.918,17.826-5.367,26.521l0,0c-27.025,95.205-126.112,150.474-221.317,123.458
	c-77.055-21.871-130.234-92.218-130.268-172.311V179.201c0-23.56,19.106-42.666,42.666-42.666s42.666,19.106,42.666,42.666v17.066
	c-0.026,27.101,11.776,52.872,32.315,70.552l-0.111,0.35l4.77,3.644c16.298,12.561,36.309,19.353,56.891,19.319h0.316
	c-0.299,0.623-0.529,1.254-0.853,1.877c-1.135,2.466-2.227,4.932-3.26,7.415c-0.452,1.084-0.913,2.167-1.34,3.251
	c-1.357,3.49-2.628,6.989-3.738,10.496 M485.921,375.464c-4.232,37.435-34.96,66.303-72.592,68.18
	c0.461-0.538,0.853-1.135,1.297-1.707c3.729-4.429,7.322-8.968,10.641-13.696c0.213-0.307,0.401-0.64,0.623-0.947
	c3.115-4.497,5.973-9.148,8.712-13.875c0.751-1.297,1.485-2.56,2.202-3.908c2.765-5.077,5.393-10.24,7.68-15.53
	c0.102-0.23,0.179-0.478,0.282-0.708c2.202-5.12,4.13-10.359,5.888-15.667c0.247-0.734,0.58-1.425,0.853-2.167L485.921,375.464z
	 M446.233,312.003c-30.225,29.798-70.988,46.472-113.432,46.395H264.86c0-0.708,0-1.425,0.077-2.133
	c0.094-1.425,0.23-2.842,0.358-4.267c0.222-2.432,0.503-4.847,0.853-7.262c0.196-1.425,0.393-2.85,0.631-4.267
	c0.41-2.509,0.913-5,1.442-7.492c0.265-1.246,0.503-2.5,0.794-3.738c0.853-3.678,1.852-7.339,2.987-10.957l0,0
	c3.601-11.281,8.422-22.127,14.387-32.349v-0.068c29.021-50.039,82.431-80.903,140.277-81.065h68.052
	C492.68,245.376,475.357,283.673,446.233,312.003z"/>
<circle cx="119.463" cy="187.725" r="17.066"/>
<g>
</g>
<g>
</g>
<g>
</g>
<g>
</g>
<g>
</g>
<g>
</g>
<g>
</g>
<g>
</g>
<g>
</g>
<g>
</g>
<g>
</g>
<g>
</g>
<g>
</g>
<g>
</g>
<g>
</g>
</svg>
