<?xml version="1.0" encoding="iso-8859-1"?>
<!-- Generator: Adobe Illustrator 19.0.0, SVG Export Plug-In . SVG Version: 6.00 Build 0)  -->
<svg version="1.1" id="Capa_1" xmlns="http://www.w3.org/2000/svg" xmlns:xlink="http://www.w3.org/1999/xlink" x="0px" y="0px"
	 viewBox="0 0 480.027 480.027" style="enable-background:new 0 0 480.027 480.027;" xml:space="preserve">
<path style="fill:#9C1C1F;" d="M336.013,471.651h-192v-32h192V471.651z"/>
<path style="fill:#BF6F6E;" d="M344.013,215.651h-40l27.528-74.736c19.441-50.55-5.777-107.288-56.326-126.73
	s-107.288,5.777-126.73,56.326c-8.715,22.659-8.715,47.745,0,70.404l27.528,74.736h-40l-96,96v112h56v-88l40-40v144h208v-144l40,40
	v88h56v-112L344.013,215.651z"/>
<path style="fill:#527592;" d="M216.013,215.651l-28-69.984c-2.644-6.616-4.002-13.675-4-20.8v-12.72
	c-0.001-20.097,10.767-38.653,28.216-48.624c17.216-9.838,38.352-9.838,55.568,0c17.449,9.971,28.217,28.527,28.216,48.624v12.72
	c0.002,7.125-1.356,14.184-4,20.8l-28,69.984H216.013z"/>
<path style="fill:#9C1C1F;" d="M296.013,112.147c0-30.928-25.072-56-56-56s-56,25.072-56,56v12.72
	c0.015,3.219,0.307,6.431,0.872,9.6l11.512-15.36c18.085-24.08,52.267-28.939,76.347-10.853c4.111,3.088,7.765,6.742,10.853,10.853
	l11.512,15.36c0.565-3.169,0.857-6.381,0.872-9.6L296.013,112.147z"/>
<g>
	<path style="fill:#BF6F6E;" d="M168.013,439.651h16v32h-16V439.651z"/>
	<path style="fill:#BF6F6E;" d="M200.013,439.651h16v32h-16V439.651z"/>
	<path style="fill:#BF6F6E;" d="M232.013,439.651h16v32h-16V439.651z"/>
	<path style="fill:#BF6F6E;" d="M264.013,439.651h16v32h-16V439.651z"/>
	<path style="fill:#BF6F6E;" d="M296.013,439.651h16v32h-16V439.651z"/>
</g>
<g>
	<path style="fill:#9C1C1F;" d="M392.013,423.651h40v32h-40V423.651z"/>
	<path style="fill:#9C1C1F;" d="M88.013,455.651h-40v-32h40V455.651z"/>
</g>
<path style="fill:#FDEBEC;" d="M232.013,215.651h16v224h-16V215.651z"/>
<path d="M392.013,464.027h40c4.418,0,8-3.582,8-8v-24c4.418,0,8-3.582,8-8v-112c0-2.122-0.844-4.156-2.344-5.656l-40-40l-56-56
	c-1.5-1.5-3.534-2.344-5.656-2.344h-28.528l23.528-63.864c21.026-54.674-6.252-116.041-60.926-137.066
	s-116.041,6.252-137.066,60.926c-9.41,24.47-9.424,51.557-0.04,76.037l23.56,64h-28.528c-2.124-0.002-4.162,0.842-5.664,2.344
	l-56,56l-40,40c-1.49,1.493-2.329,3.515-2.336,5.624v112c0,4.418,3.582,8,8,8v24c0,4.418,3.582,8,8,8h40c4.418,0,8-3.582,8-8v-24
	c4.418,0,8-3.582,8-8v-84.688l24-24v124.688c0,4.418,3.582,8,8,8v24c0,4.418,3.582,8,8,8h192c4.418,0,8-3.582,8-8v-24
	c4.418,0,8-3.582,8-8V315.339l24,24v84.688c0,4.418,3.582,8,8,8v24C384.013,460.445,387.595,464.027,392.013,464.027
	L392.013,464.027z M392.013,336.027h40v40h-40V336.027z M392.013,392.027h40v24h-40V392.027z M380.701,264.027h-28.688v-28.688
	L380.701,264.027z M336.013,264.027h-48c-4.418,0-8,3.582-8,8s3.582,8,8,8h48v40h-88v-96h88V264.027z M304.013,392.027h32v40h-88
	v-40h24c4.418,0,8-3.582,8-8s-3.582-8-8-8h-24v-40h88v40h-32c-4.418,0-8,3.582-8,8S299.595,392.027,304.013,392.027z
	 M144.013,336.027h88v40h-88V336.027z M144.013,392.027h88v40h-88V392.027z M200.013,448.027v16h-16v-16H200.013z M216.013,448.027
	h16v16h-16V448.027z M248.013,448.027h16v16h-16V448.027z M280.013,448.027h16v16h-16V448.027z M221.429,208.027l-25.984-64.952
	c-0.782-2.102-1.413-4.256-1.888-6.448l9.24-12.32c15.434-20.545,44.602-24.688,65.147-9.253c3.505,2.633,6.62,5.748,9.253,9.253
	l9.24,12.328c-0.478,2.175-1.109,4.314-1.888,6.4l-25.984,64.952L221.429,208.027z M192.013,112.451c0-26.51,21.49-48,48-48
	s48,21.49,48,48c-21.631-26.51-60.657-30.464-87.167-8.833C197.612,106.257,194.653,109.217,192.013,112.451z M155.941,138.411
	c-17.857-46.425,5.302-98.536,51.727-116.393s98.536,5.302,116.393,51.727c8.019,20.848,8.005,43.932-0.04,64.77l-25.6,69.504
	h-22.592l23.608-59.016c3.029-7.552,4.583-15.615,4.576-23.752v-12.72c0-35.346-28.654-64-64-64s-64,28.654-64,64v12.72
	c-0.009,8.142,1.545,16.211,4.576,23.768l23.608,59.016h-22.584L155.941,138.411z M232.013,224.027v96h-88v-40h64
	c4.418,0,8-3.582,8-8s-3.582-8-8-8h-64v-40H232.013z M128.013,264.027H99.325l28.688-28.688V264.027z M88.013,376.027h-40v-40h40
	V376.027z M88.013,416.027h-40v-24h40V416.027z M80.013,448.027h-24v-16h24V448.027z M100.701,320.027H48.013v-4.688l35.312-35.312
	h44.688v12.688L100.701,320.027z M152.013,448.027h16v16h-16V448.027z M328.013,464.027h-16v-16h16V464.027z M352.013,292.715
	v-12.688h44.688l35.312,35.312v4.688h-52.688L352.013,292.715z M424.013,432.027v16h-24v-16H424.013z"/>
<g>
</g>
<g>
</g>
<g>
</g>
<g>
</g>
<g>
</g>
<g>
</g>
<g>
</g>
<g>
</g>
<g>
</g>
<g>
</g>
<g>
</g>
<g>
</g>
<g>
</g>
<g>
</g>
<g>
</g>
</svg>
