<?xml version="1.0" encoding="iso-8859-1"?>
<!-- Generator: Adobe Illustrator 19.0.0, SVG Export Plug-In . SVG Version: 6.00 Build 0)  -->
<svg version="1.1" id="Capa_1" xmlns="http://www.w3.org/2000/svg" xmlns:xlink="http://www.w3.org/1999/xlink" x="0px" y="0px"
	 viewBox="0 0 512 512" style="enable-background:new 0 0 512 512;" xml:space="preserve">
<path style="fill:#91CBF2;" d="M485.669,286.94H227.042v48.444h258.626c10.357,0,18.752-8.397,18.752-18.753v-10.939
	C504.421,295.336,496.026,286.94,485.669,286.94z"/>
<path style="fill:#70BDE8;" d="M485.669,311.162H227.042v24.222h258.626c10.357,0,18.752-8.397,18.752-18.753v-10.939
	c0-2.342-0.449-4.575-1.233-6.641C500.504,306.124,493.684,311.162,485.669,311.162z"/>
<path style="fill:#4DADE2;" d="M442.039,407.017l35.817-71.633H227.042v92.199h173.068
	C427.973,427.583,438.975,412.469,442.039,407.017z"/>
<rect x="227.046" y="335.386" style="fill:#2794C4;" width="19.676" height="92.194"/>
<path style="fill:#BABABA;" d="M485.669,286.94h-43.756c-10.356,0-18.752-8.395-18.752-18.753v-0.781
	c0-10.356,8.396-18.753,18.752-18.753h43.756c10.357,0,18.752,8.396,18.752,18.753C504.421,279.4,495.423,286.94,485.669,286.94z"/>
<path style="fill:#ADADAD;" d="M485.669,268.272h-43.756c-7.118,0-13.31-3.966-16.486-9.809c-1.445,2.658-2.266,5.704-2.266,8.942
	v0.781c0,10.357,8.396,18.753,18.752,18.753h43.756c15.023,0,23.059-16.386,16.486-28.476
	C498.98,264.307,492.787,268.272,485.669,268.272z"/>
<path style="fill:#EDE2C3;" d="M484.888,85.352H27.016c-10.789,0-19.535-8.746-19.535-19.534s8.746-19.535,19.535-19.535h457.871
	c10.789,0,19.534,8.747,19.534,19.535S495.676,85.352,484.888,85.352z"/>
<path style="fill:#E5D0A8;" d="M484.888,65.817H27.016c-7.227,0-13.52-3.934-16.899-9.766c-7.53,13.001,1.88,29.301,16.899,29.301
	h457.871c14.993,0,24.441-16.278,16.899-29.301C498.408,61.884,492.114,65.817,484.888,65.817z"/>
<path style="fill:#F7AC16;" d="M88.751,447.872c0,10.354-8.394,18.75-18.749,18.75h-8.594c-10.355,0-18.75-8.395-18.75-18.75v-307.8
	c0-10.354,8.394-18.749,18.75-18.749h8.594c10.354,0,18.749,8.395,18.749,18.749V447.872z"/>
<path style="fill:#EDA018;" d="M65.705,447.872v-307.8c0-7.793,4.756-14.473,11.523-17.302c-4.25-1.776-6.704-1.447-15.82-1.447
	c-10.355,0-18.75,8.395-18.75,18.749v307.8c0,10.354,8.394,18.75,18.75,18.75c9.117,0,11.571,0.33,15.82-1.448
	C70.461,462.344,65.705,455.665,65.705,447.872z"/>
<g>
	<path style="fill:#F7AC16;" d="M134.843,447.872c0,10.354-8.394,18.75-18.75,18.75H107.5c-10.354,0-18.75-8.395-18.75-18.75v-307.8
		c0-10.354,8.395-18.749,18.75-18.749h8.594c10.355,0,18.75,8.395,18.75,18.749V447.872z"/>
	<path style="fill:#F7AC16;" d="M180.935,447.872c0,10.354-8.394,18.75-18.75,18.75h-8.594c-10.354,0-18.749-8.395-18.749-18.75
		v-307.8c0-10.354,8.394-18.749,18.749-18.749h8.594c10.355,0,18.75,8.395,18.75,18.749V447.872z"/>
	<path style="fill:#F7AC16;" d="M227.026,447.872c0,10.354-8.394,18.75-18.749,18.75h-8.594c-10.355,0-18.75-8.395-18.75-18.75
		v-307.8c0-10.354,8.394-18.749,18.75-18.749h8.594c10.354,0,18.749,8.395,18.749,18.749V447.872z"/>
</g>
<rect x="42.659" y="215.329" style="fill:#F2D422;" width="46.087" height="157.286"/>
<rect x="42.659" y="215.329" style="fill:#F2C406;" width="23.044" height="157.286"/>
<path style="fill:#EDA018;" d="M111.797,447.872v-307.8c0-7.793,4.756-14.473,11.523-17.302c-4.25-1.776-6.704-1.447-15.82-1.447
	c-10.355,0-18.75,8.395-18.75,18.749v307.8c0,10.354,8.394,18.75,18.75,18.75c9.117,0,11.571,0.33,15.82-1.448
	C116.552,462.344,111.797,455.665,111.797,447.872z"/>
<g>
	<rect x="88.755" y="215.329" style="fill:#F2D422;" width="46.087" height="157.286"/>
	<rect x="134.842" y="215.329" style="fill:#F2D422;" width="46.087" height="157.286"/>
	<rect x="180.939" y="215.329" style="fill:#F2D422;" width="46.087" height="157.286"/>
</g>
<rect x="88.755" y="215.329" style="fill:#F2C406;" width="23.044" height="157.286"/>
<path style="fill:#EDA018;" d="M157.889,447.872v-307.8c0-7.793,4.756-14.473,11.523-17.302c-4.25-1.776-6.704-1.447-15.82-1.447
	c-10.355,0-18.75,8.395-18.75,18.749v307.8c0,10.354,8.394,18.75,18.75,18.75c9.117,0,11.571,0.33,15.82-1.448
	C162.645,462.344,157.889,455.665,157.889,447.872z"/>
<rect x="134.842" y="215.329" style="fill:#F2C406;" width="23.044" height="157.286"/>
<path style="fill:#EDA018;" d="M203.981,447.872v-307.8c0-7.793,4.756-14.473,11.523-17.302c-4.25-1.776-6.704-1.447-15.82-1.447
	c-10.355,0-18.75,8.395-18.75,18.749v307.8c0,10.354,8.394,18.75,18.75,18.75c9.117,0,11.571,0.33,15.82-1.448
	C208.736,462.344,203.981,455.665,203.981,447.872z"/>
<rect x="180.939" y="215.329" style="fill:#F2C406;" width="23.044" height="157.286"/>
<path d="M485.684,240.67h-12.866v-40.166c0-24.168-19.662-43.832-43.831-43.832c-26.448,0-43.473,19.224-45.186,40.242h-5.163
	c-4.141,0-7.498,3.357-7.498,7.498s3.357,7.498,7.498,7.498h25.394c4.141,0,7.498-3.357,7.498-7.498s-3.357-7.498-7.498-7.498
	h-5.164c1.773-14.211,13.92-25.246,28.604-25.246c19.108,0,30.348,14.137,30.348,28.836v40.166h-15.894
	c-20.089,0-31.818,21.273-23.71,38.286H234.556c0-6.322,0-132.067,0-139.395c0-13.391-10.08-24.465-23.051-26.05V92.364h273.397
	c14.905,0,27.031-12.126,27.031-27.031S499.807,38.3,484.903,38.3H129.304c-4.141,0-7.498,3.357-7.498,7.498
	s3.357,7.498,7.498,7.498h355.599c6.636,0,12.036,5.399,12.036,12.037c0,6.636-5.399,12.036-12.036,12.036H27.032
	c-6.637,0-12.037-5.399-12.037-12.036c0-6.637,5.399-12.037,12.037-12.037h67.281c4.141,0,7.498-3.357,7.498-7.498
	S98.454,38.3,94.313,38.3H27.032C12.127,38.3,0,50.427,0,65.333c0,14.906,12.127,27.031,27.032,27.031h31.179v21.147
	c-12.969,1.586-23.05,12.658-23.05,26.05v75.27v157.312v75.27c0,14.474,11.776,26.251,26.251,26.251
	c9.378,0,18.592,1.043,27.347-7.907c4.769,4.874,11.412,7.907,18.753,7.907c9.38,0,18.595,1.039,27.346-7.906
	c4.769,4.874,11.412,7.906,18.752,7.906c9.378,0,18.592,1.043,27.347-7.906c8.737,8.929,17.917,7.906,27.347,7.906
	c14.475,0,26.251-11.776,26.251-26.251v-12.817h151.821l15.948,33.974c1.276,2.718,3.975,4.314,6.792,4.314
	c1.067,0,2.151-0.229,3.181-0.713c3.749-1.759,5.361-6.225,3.601-9.973l-12.98-27.653c23.652-0.814,40.033-12.935,45.841-24.66
	l33.745-67.488h3.18c14.474,0,26.25-11.776,26.25-26.251c0-11.155,1.327-20.658-7.906-29.692
	C520.539,270.299,509.678,240.67,485.684,240.67z M50.157,222.328h31.104v142.316H50.157V222.328z M173.46,207.333h-31.104v-67.772
	c0-6.206,5.049-11.256,11.254-11.256h8.596c6.205,0,11.255,5.05,11.255,11.256V207.333z M150.41,113.511
	c-6.06,0.741-11.488,3.55-15.552,7.705c-4.064-4.154-9.492-6.964-15.553-7.705V92.364h31.104V113.511z M107.511,128.305h8.595
	c6.206,0,11.255,5.05,11.255,11.256v67.772H96.257v-67.772C96.257,133.354,101.306,128.305,107.511,128.305z M96.257,222.328h31.103
	v142.316H96.257V222.328z M142.356,222.328h31.104v142.316h-31.104V222.328z M188.456,222.328h31.104c0,1.7,0,136.837,0,142.316
	h-31.104V222.328z M219.56,139.561v67.772h-31.104v-67.772c0-6.206,5.049-11.256,11.254-11.256h8.596
	C214.511,128.305,219.56,133.354,219.56,139.561z M196.51,113.511c-6.06,0.741-11.488,3.55-15.552,7.705
	c-4.065-4.154-9.492-6.964-15.553-7.705V92.364h31.104V113.511z M104.31,92.364v21.147c-6.06,0.741-11.487,3.551-15.552,7.705
	c-4.064-4.154-9.492-6.964-15.553-7.705V92.364H104.31z M61.412,128.305h8.595c6.205,0,11.255,5.05,11.255,11.256v67.772H50.157
	v-67.772C50.157,133.354,55.205,128.305,61.412,128.305z M70.006,458.667h-8.595c-6.206,0-11.255-5.049-11.255-11.255V379.64h31.104
	v67.772C81.261,453.618,76.212,458.667,70.006,458.667z M116.105,458.667h-8.595c-6.205,0-11.255-5.049-11.255-11.255V379.64h31.103
	v67.772C127.36,453.618,122.312,458.667,116.105,458.667z M162.205,458.667h-8.596c-6.206,0-11.254-5.049-11.254-11.255V379.64
	h31.104v67.772C173.46,453.618,168.411,458.667,162.205,458.667z M219.56,447.412c0,6.205-5.049,11.255-11.255,11.255h-8.596
	c-6.206,0-11.254-5.049-11.254-11.255V379.64h31.104C219.56,387.489,219.56,439.256,219.56,447.412z M496.938,305.206v10.939
	c0,6.206-5.049,11.255-11.254,11.255h-68.063c-4.141,0-7.498,3.357-7.498,7.498c0,4.141,3.357,7.498,7.498,7.498h48.117
	l-30.304,60.609c-2.921,5.111-12.082,16.594-35.307,16.594H234.556c0-8.048,0-68.416,0-77.203h148.075
	c4.141,0,7.498-3.357,7.498-7.498c0-4.141-3.357-7.498-7.498-7.498H234.556v-33.449c9.742,0,239.16,0,251.128,0
	C491.89,293.951,496.938,299.001,496.938,305.206z M441.929,278.955c-6.206,0-11.254-5.049-11.254-11.255
	c0-7.612,5.421-12.036,11.254-12.036h43.756c6.205,0,11.254,5.049,11.254,11.255c0,7.612-5.42,12.036-11.254,12.036H441.929z"/>
<g>
</g>
<g>
</g>
<g>
</g>
<g>
</g>
<g>
</g>
<g>
</g>
<g>
</g>
<g>
</g>
<g>
</g>
<g>
</g>
<g>
</g>
<g>
</g>
<g>
</g>
<g>
</g>
<g>
</g>
</svg>
