<?xml version="1.0" encoding="iso-8859-1"?>
<!-- Generator: Adobe Illustrator 19.0.0, SVG Export Plug-In . SVG Version: 6.00 Build 0)  -->
<svg version="1.1" id="Capa_1" xmlns="http://www.w3.org/2000/svg" xmlns:xlink="http://www.w3.org/1999/xlink" x="0px" y="0px"
	 viewBox="0 0 511.998 511.998" style="enable-background:new 0 0 511.998 511.998;" xml:space="preserve">
<polygon style="fill:#8C421C;" points="469.333,115.199 469.333,302.932 42.667,302.932 42.667,166.399 8.533,166.399 
	8.533,396.799 42.667,396.799 42.667,354.132 469.333,354.132 469.333,396.799 503.467,396.799 503.467,115.199 "/>
<polygon style="fill:#CFCFCF;" points="469.333,302.932 42.667,302.932 42.667,251.732 349.867,251.732 349.867,251.732 
	469.333,251.732 "/>
<path style="fill:#4398D1;" d="M42.667,251.732h307.2V132.266H187.733c-35.081,0-67.149,19.823-82.842,51.2H42.667V251.732z"/>
<path style="fill:#E5E5E5;" d="M375.467,200.532h68.267c14.14,0,25.6,11.46,25.6,25.6l0,0c0,14.14-11.46,25.6-25.6,25.6h-68.267
	c-14.14,0-25.6-11.46-25.6-25.6l0,0C349.867,211.993,361.327,200.532,375.467,200.532z"/>
<circle style="fill:#F2BB80;" cx="392.53" cy="157.869" r="42.667"/>
<path style="fill:#EBB071;" d="M412.8,120.532c3.456,6.204,5.282,13.167,5.333,20.267c0,23.561-19.106,42.667-42.667,42.667
	c-7.1-0.051-14.063-1.877-20.267-5.333c11.127,20.685,36.915,28.442,57.6,17.314c20.685-11.127,28.442-36.915,17.314-57.6
	C426.163,130.508,420.147,124.483,412.8,120.532z"/>
<path style="fill:#4398D1;" d="M42.667,251.732h307.2V132.266H187.733c-35.081,0-67.149,19.823-82.842,51.2H42.667V251.732z"/>
<rect x="42.667" y="217.599" style="fill:#3E8CC7;" width="307.2" height="34.13"/>
<path d="M503.467,106.666h-34.133c-4.71,0-8.533,3.823-8.533,8.533v81.545c-5.163-3.072-11.059-4.71-17.067-4.745h-13.141
	c18.825-21.052,17.007-53.376-4.045-72.201s-53.376-17.007-72.201,4.045c-0.247,0.282-0.495,0.563-0.734,0.845
	c-1.152-0.606-2.441-0.939-3.746-0.956H187.733c-36.429-0.128-70.084,19.456-87.962,51.2H51.2v-8.533
	c0-4.71-3.823-8.533-8.533-8.533H8.533c-4.71,0-8.533,3.823-8.533,8.533v230.4c0,4.71,3.823,8.533,8.533,8.533h34.133
	c4.71,0,8.533-3.823,8.533-8.533v-34.133h409.6v34.133c0,4.71,3.823,8.533,8.533,8.533h34.133c4.71,0,8.533-3.823,8.533-8.533
	v-281.6C512,110.489,508.177,106.666,503.467,106.666z M51.2,260.266h409.6v34.133H51.2V260.266z M358.4,195.924l0.572,0.512
	l-0.572,0.307V195.924z M460.8,226.132c0,9.429-7.637,17.067-17.067,17.067h-68.267c-9.429,0-17.067-7.637-17.067-17.067
	c0-9.429,7.637-17.067,17.067-17.067h68.267C453.163,209.066,460.8,216.703,460.8,226.132z M392.533,123.732
	c18.85,0,34.133,15.283,34.133,34.133s-15.283,34.134-34.133,34.134S358.4,176.716,358.4,157.866S373.683,123.732,392.533,123.732z
	 M104.892,191.999c3.234,0,6.195-1.826,7.637-4.719c14.157-28.561,43.324-46.592,75.204-46.481h153.6v102.4H51.2v-51.2H104.892z
	 M494.933,388.266h-17.067v-34.133c0-4.71-3.823-8.533-8.533-8.533H42.667c-4.71,0-8.533,3.823-8.533,8.533v34.133H17.067V174.932
	h17.067v128c0,4.71,3.823,8.533,8.533,8.533h426.667c4.71,0,8.533-3.823,8.533-8.533v-179.2h17.067L494.933,388.266L494.933,388.266
	z"/>
<g>
</g>
<g>
</g>
<g>
</g>
<g>
</g>
<g>
</g>
<g>
</g>
<g>
</g>
<g>
</g>
<g>
</g>
<g>
</g>
<g>
</g>
<g>
</g>
<g>
</g>
<g>
</g>
<g>
</g>
</svg>
