<?xml version="1.0" encoding="iso-8859-1"?>
<!-- Generator: Adobe Illustrator 19.0.0, SVG Export Plug-In . SVG Version: 6.00 Build 0)  -->
<svg version="1.1" id="Capa_1" xmlns="http://www.w3.org/2000/svg" xmlns:xlink="http://www.w3.org/1999/xlink" x="0px" y="0px"
	 viewBox="0 0 480.02 480.02" style="enable-background:new 0 0 480.02 480.02;" xml:space="preserve">
<g>
	<path style="fill:#FFEB99;" d="M344.02,8.007h128v48h-128V8.007z"/>
	<path style="fill:#FFEB99;" d="M72.02,344.007c-35.346-0.002-64.002,28.65-64.004,63.996c0,1.413,0.047,2.826,0.14,4.236
		c2.968,34.142,31.773,60.211,66.04,59.768H88.02v-128H72.02z"/>
	<path style="fill:#FFEB99;" d="M168.02,56.007h128v48h-128V56.007z"/>
	<path style="fill:#FFEB99;" d="M168.02,136.007v200c0,4.418-3.582,8-8,8h-40v128h72c0-57.438,46.562-104,104-104v-232H168.02z"/>
	<path style="fill:#FFEB99;" d="M344.02,88.007v200c0,4.418-3.582,8-8,8h-40v128h72c0-57.438,46.562-104,104-104v-232H344.02z"/>
</g>
<path style="fill:#FF9478;" d="M168.02,104.007h128v32h-128V104.007z"/>
<path style="fill:#78B9EB;" d="M232.02,472.007c35.346,0,64-28.654,64-64C296.02,443.353,267.367,472.007,232.02,472.007z"/>
<path style="fill:#D8D7DA;" d="M192.02,472.007h40c35.346,0,64-28.654,64-64v-40C238.583,368.007,192.02,414.569,192.02,472.007z"/>
<g>
	<path style="fill:#FF9478;" d="M88.02,344.007h32v128h-32V344.007z"/>
	<path style="fill:#FF9478;" d="M344.02,56.007h128v32h-128V56.007z"/>
</g>
<path style="fill:#78B9EB;" d="M408.02,424.007c35.346,0,64-28.654,64-64C472.02,395.353,443.367,424.007,408.02,424.007z"/>
<path style="fill:#D8D7DA;" d="M368.02,424.007h40c35.346,0,64-28.654,64-64v-40C414.583,320.007,368.02,366.569,368.02,424.007z"/>
<path style="fill:#3E3D42;" d="M472.02,0.007h-128c-4.418,0-8,3.582-8,8v280h-32v-232c0-4.418-3.582-8-8-8h-128
	c-4.418,0-8,3.582-8,8v280h-88c-19.895,0.027-38.899,8.258-52.528,22.752c-13.699,14.508-20.705,34.086-19.32,53.992
	c3.163,38.39,35.508,67.777,74.024,67.256H232.02c30.476-0.054,57.623-19.273,67.8-48h108.2c39.746-0.044,71.956-32.254,72-72v-352
	C480.02,3.588,476.439,0.007,472.02,0.007z M352.02,64.007h112v16h-112V64.007z M464.02,16.007v32h-112v-32H464.02z M176.02,112.007
	h112v16h-112V112.007z M288.02,64.007v32h-112v-32H288.02z M176.02,336.007v-192h112v216.408
	c-55.458,4.028-99.564,48.134-103.592,103.592H128.02v-112h32C168.857,352.007,176.02,344.843,176.02,336.007L176.02,336.007z
	 M16.14,411.719c-2.05-30.86,21.305-57.539,52.165-59.589c1.237-0.082,2.476-0.123,3.715-0.123h8v112h-5.824
	C44.11,464.544,18.743,441.697,16.14,411.719z M96.02,464.007v-112h16v112H96.02z M288.02,408.007
	c-0.035,30.913-25.087,55.965-56,56h-31.664c3.966-46.675,40.989-83.701,87.664-87.672V408.007z M304.02,408.007v-104h32
	c8.837,0,16-7.163,16-16v-192h112v216.408c-55.458,4.028-99.564,48.134-103.592,103.592h-56.88
	C303.855,413.351,304.013,410.68,304.02,408.007L304.02,408.007z M464.02,360.007c-0.035,30.913-25.087,55.965-56,56h-31.664
	c3.966-46.675,40.989-83.701,87.664-87.672V360.007z"/>
<g>
</g>
<g>
</g>
<g>
</g>
<g>
</g>
<g>
</g>
<g>
</g>
<g>
</g>
<g>
</g>
<g>
</g>
<g>
</g>
<g>
</g>
<g>
</g>
<g>
</g>
<g>
</g>
<g>
</g>
</svg>
