<?xml version="1.0" encoding="iso-8859-1"?>
<!-- Generator: Adobe Illustrator 19.0.0, SVG Export Plug-In . SVG Version: 6.00 Build 0)  -->
<svg version="1.1" id="Capa_1" xmlns="http://www.w3.org/2000/svg" xmlns:xlink="http://www.w3.org/1999/xlink" x="0px" y="0px"
	 viewBox="0 0 512 512" style="enable-background:new 0 0 512 512;" xml:space="preserve">
<path style="fill:#F07C3C;" d="M470.083,89.043c-8.15,0-15.384-3.927-19.911-9.991c-4.528,6.064-11.762,9.991-19.912,9.991
	s-15.384-3.927-19.911-9.991c-4.528,6.064-11.762,9.991-19.912,9.991s-15.384-3.927-19.911-9.991
	c-4.528,6.064-11.762,9.991-19.912,9.991s-15.384-3.927-19.912-9.991c-4.527,6.064-11.761,9.991-19.911,9.991
	c-8.15,0-15.384-3.927-19.912-9.991c-4.418,5.917-11.414,9.788-19.322,9.973l-27.813,198.349
	c-1.635,11.664-12.864,21.519-24.522,21.519H76.128c-23.714,0-43.007,19.499-43.007,43.466v83.378h440.013V88.849
	C472.133,88.972,471.117,89.043,470.083,89.043z"/>
<path style="fill:#A53C29;" d="M470.083,89.043c-8.15,0-15.384-3.927-19.911-9.991c-4.528,6.064-11.762,9.991-19.912,9.991
	s-15.384-3.927-19.911-9.991c-3.504,4.692-8.631,8.095-14.546,9.399v20.735c0,2.728,2.207,4.961,4.906,4.961h72.425V88.849
	C472.133,88.972,471.117,89.043,470.083,89.043z"/>
<path style="fill:#D16605;" d="M473.134,435.737v-45.7h-98.183c-27.698,0-51.071,19.57-57.306,45.7H473.134z"/>
<path style="fill:#C1262C;" d="M478.704,435.737H24.25c-3.942,0-7.168,3.259-7.168,7.244v43.831c0,3.985,3.226,7.245,7.168,7.245
	h212.174c3.943,0,8.871-2.769,10.95-6.154l6.774-11.02c2.078-3.384,7.007-6.153,10.949-6.153h96.052c3.942,0,7.167,3.26,7.167,7.244
	v8.837c0,3.985,3.227,7.245,7.169,7.245h103.22c3.942,0,7.168-3.26,7.168-7.245V442.98
	C485.872,438.996,482.646,435.737,478.704,435.737z"/>
<path style="opacity:0.1;fill:#2F003A;enable-background:new    ;" d="M359.536,435.737c6.235-26.13,29.607-45.7,57.306-45.7h-41.89
	c-27.698,0-51.071,19.57-57.306,45.7H359.536z"/>
<path style="fill:#D16605;" d="M279.434,261.808c0-10.403,8.344-18.836,18.636-18.836c0.564,0,1.12,0.036,1.671,0.085l3.266-26.592
	c-7.066-2.677-12.105-9.546-12.105-17.624c0-9.694,7.25-17.671,16.568-18.713l3.454-28.119c-5.141-3.353-8.552-9.181-8.552-15.824
	c0-8.298,5.315-15.328,12.687-17.839l3.764-30.643c-2.521,0.862-5.219,1.339-8.032,1.339c-8.15,0-15.384-3.927-19.912-9.991
	c-4.418,5.917-11.414,9.788-19.321,9.973l-27.813,198.349c-1.66,11.835-12.695,21.519-24.522,21.519h-56.032v50.711h56.032
	c37.096,0,68.997-27.993,74.202-65.114l1.732-14.1C286.251,278.974,279.434,271.206,279.434,261.808z"/>
<path style="fill:#A53C29;" d="M163.189,435.737V308.893H76.007C52.354,308.893,33,328.452,33,352.359v83.378H163.189z"/>
<path style="opacity:0.1;fill:#2F003A;enable-background:new    ;" d="M64.812,435.737v-83.378
	c0-23.907,19.354-43.466,43.007-43.466H76.007C52.354,308.893,33,328.452,33,352.359v83.378H64.812z"/>
<path style="fill:#A53C29;" d="M473.134,190.087h-44.999c-6.353,0-11.552,5.255-11.552,11.676v109.439
	c0,6.42,5.198,11.675,11.552,11.675h44.999V190.087z"/>
<g style="opacity:0.1;">
	<path d="M437.449,311.202V201.763c0-6.421,5.198-11.676,11.552-11.676h-20.866c-6.353,0-11.552,5.255-11.552,11.676v109.439
		c0,6.42,5.198,11.675,11.552,11.675h20.866C442.647,322.877,437.449,317.622,437.449,311.202z"/>
</g>
<path style="fill:#E2EEFD;" d="M494.918,32.334c0-13.715-11.12-24.834-24.835-24.834c-8.15,0-15.384,3.927-19.911,9.992
	C445.644,11.427,438.41,7.5,430.26,7.5s-15.384,3.927-19.911,9.992C405.82,11.427,398.587,7.5,390.436,7.5
	c-8.15,0-15.384,3.927-19.911,9.992c-4.528-6.065-11.762-9.992-19.912-9.992s-15.384,3.927-19.912,9.992
	C326.174,11.427,318.94,7.5,310.79,7.5s-15.384,3.927-19.912,9.992c-4.527-6.065-11.761-9.992-19.911-9.992
	c-13.715,0-24.835,11.119-24.835,24.834c0,6.068,2.179,11.624,5.792,15.937c-3.613,4.313-5.792,9.87-5.792,15.937
	c0,13.715,11.12,24.835,24.835,24.835c8.15,0,15.384-3.927,19.911-9.991c4.528,6.064,11.762,9.991,19.912,9.991
	s15.384-3.927,19.911-9.991c4.528,6.064,11.762,9.991,19.912,9.991s15.384-3.927,19.912-9.991
	c4.527,6.064,11.761,9.991,19.911,9.991c8.15,0,15.384-3.927,19.912-9.991c4.527,6.064,11.761,9.991,19.911,9.991
	s15.384-3.927,19.912-9.991c4.527,6.064,11.761,9.991,19.911,9.991c13.715,0,24.835-11.119,24.835-24.835
	c0-6.066-2.179-11.624-5.792-15.937C492.739,43.958,494.918,38.402,494.918,32.334z"/>
<g style="opacity:0.1;">
	<path d="M48.21,486.811V442.98c0-3.984,3.226-7.244,7.168-7.244H24.25c-3.942,0-7.168,3.259-7.168,7.244v43.831
		c0,3.985,3.226,7.245,7.168,7.245h31.128C51.436,494.056,48.21,490.796,48.21,486.811z"/>
</g>
<g>
	<ellipse style="fill:#E2EEFD;" cx="321.01" cy="136.19" rx="18.637" ry="18.834"/>
	<ellipse style="fill:#E2EEFD;" cx="309.54" cy="198.84" rx="18.637" ry="18.837"/>
	<ellipse style="fill:#E2EEFD;" cx="298.07" cy="261.81" rx="18.637" ry="18.836"/>
</g>
<path d="M473.134,139.5c4.142,0,7.5-3.358,7.5-7.5V94.766c12.663-4.385,21.784-16.422,21.784-30.558
	c0-5.608-1.468-11.105-4.204-15.937c2.736-4.832,4.204-10.328,4.204-15.937C502.418,14.505,487.913,0,470.083,0
	c-7.256,0-14.277,2.484-19.912,6.874C444.537,2.484,437.516,0,430.26,0c-7.257,0-14.277,2.484-19.912,6.874
	C404.713,2.484,397.692,0,390.436,0c-7.257,0-14.277,2.484-19.912,6.874C364.89,2.484,357.869,0,350.613,0
	c-7.256,0-14.277,2.484-19.912,6.874C325.067,2.484,318.047,0,310.79,0c-7.256,0-14.277,2.484-19.912,6.874
	C285.244,2.484,278.223,0,270.967,0c-17.83,0-32.335,14.505-32.335,32.334c0,5.609,1.468,11.105,4.204,15.937
	c-2.736,4.831-4.204,10.328-4.204,15.937c0,15.104,10.412,27.819,24.435,31.354l-4.645,33.123h-6.227c-4.142,0-7.5,3.358-7.5,7.5
	s3.358,7.5,7.5,7.5h4.124l-6.683,47.655h-8.91c-4.142,0-7.5,3.358-7.5,7.5s3.358,7.5,7.5,7.5h6.807l-6.726,47.967h-11.551
	c-4.142,0-7.5,3.358-7.5,7.5c0,4.142,3.358,7.5,7.5,7.5h9.447l-2.387,17.024c-1.124,8.023-9.113,15.06-17.095,15.06H76.128
	c-27.85,0-50.507,22.863-50.507,50.966v75.878H24.25c-8.088,0-14.668,6.614-14.668,14.744v43.831c0,8.13,6.58,14.745,14.668,14.745
	h6.837v2.944c0,4.142,3.358,7.5,7.5,7.5s7.5-3.358,7.5-7.5v-2.944h15.106v2.944c0,4.142,3.358,7.5,7.5,7.5s7.5-3.358,7.5-7.5v-2.944
	h15.105v2.944c0,4.142,3.358,7.5,7.5,7.5s7.5-3.358,7.5-7.5v-2.944h15.105v2.944c0,4.142,3.358,7.5,7.5,7.5s7.5-3.358,7.5-7.5
	v-2.944h15.105v2.944c0,4.142,3.358,7.5,7.5,7.5s7.5-3.358,7.5-7.5v-2.944h15.107v2.944c0,4.142,3.358,7.5,7.5,7.5
	s7.5-3.358,7.5-7.5v-2.944h15.105v2.944c0,4.142,3.358,7.5,7.5,7.5s7.5-3.358,7.5-7.5v-2.944h9.703
	c6.585,0,13.878-4.091,17.34-9.727l6.775-11.022c0.71-1.156,3.224-2.578,4.558-2.578h95.719v8.581
	c0,7.529,5.646,13.747,12.904,14.627v3.061c0,4.142,3.358,7.5,7.5,7.5s7.5-3.358,7.5-7.5v-2.944h15.105v2.944
	c0,4.142,3.358,7.5,7.5,7.5s7.5-3.358,7.5-7.5v-2.944h15.105v2.944c0,4.142,3.358,7.5,7.5,7.5s7.5-3.358,7.5-7.5v-2.944h29.773
	c8.088,0,14.668-6.614,14.668-14.745V442.98c0-7.471-5.562-13.646-12.738-14.601V173c0-4.142-3.358-7.5-7.5-7.5s-7.5,3.358-7.5,7.5
	v9.587h-37.499c-10.505,0-19.052,8.602-19.052,19.176v109.439c0,10.573,8.546,19.175,19.052,19.175h37.499v52.16h-90.683
	c-29.239,0-54.109,19.166-62.977,45.7H170.81v-61.133h48.411c10.532,0,20.831-2.023,30.612-6.013
	c3.835-1.564,5.676-5.942,4.111-9.777c-1.564-3.836-5.944-5.675-9.777-4.111c-7.973,3.253-16.366,4.902-24.946,4.902H170.81v-35.711
	h48.411c15.455,0,29.788-12.551,31.95-27.978l2.679-19.107h19.17c2.134,7.223,7.264,13.156,13.935,16.328l-0.967,7.874
	c-1.474,10.436-5.425,20.541-11.43,29.225c-2.356,3.407-1.504,8.079,1.903,10.434c1.302,0.9,2.788,1.332,4.259,1.332
	c2.379,0,4.72-1.129,6.175-3.235c7.34-10.613,12.166-22.971,13.956-35.734l0.941-7.66c12.655-1.826,22.416-12.815,22.416-26.064
	c0-10.986-6.713-20.419-16.222-24.362l1.507-12.27c0.016,0,0.032,0.001,0.047,0.001c14.412,0,26.137-11.815,26.137-26.337
	c0-12.324-8.446-22.693-19.811-25.551l1.357-11.05c1.236,0.182,2.499,0.28,3.784,0.28c14.413,0,26.138-11.814,26.138-26.335
	c0-13.626-10.323-24.867-23.503-26.203l2.105-17.136c1.74-0.909,3.402-1.968,4.955-3.179c5.635,4.391,12.655,6.875,19.912,6.875
	c7.256,0,14.277-2.483,19.912-6.875c5.08,3.959,11.288,6.36,17.778,6.796v12.722c0,6.871,5.565,12.461,12.406,12.461h64.925V132
	C465.634,136.142,468.992,139.5,473.134,139.5z M428.135,315.377c-2.196,0-4.052-1.912-4.052-4.175V201.763
	c0-2.264,1.855-4.176,4.052-4.176h37.499v117.79H428.135z M374.951,397.537h90.683v30.7H443c-4.142,0-7.5,3.358-7.5,7.5
	s3.358,7.5,7.5,7.5h35.372v43.319H375.815v-8.582c0-8.13-6.58-14.744-14.667-14.744h-96.052c-6.586,0-13.878,4.091-17.339,9.726
	l-6.774,11.022c-0.711,1.157-3.225,2.579-4.56,2.579H24.582v-43.319H398c4.142,0,7.5-3.358,7.5-7.5s-3.358-7.5-7.5-7.5h-69.946
	C336.132,410.155,354.106,397.537,374.951,397.537z M40.621,428.237v-75.878c0-19.832,15.928-35.966,35.507-35.966h79.682v111.844
	H40.621z M278.192,95.708c4.613-1.067,8.954-3.132,12.686-6.04c5.477,4.268,12.264,6.727,19.303,6.861l-2.058,16.756
	c-5.804,3.329-10.226,8.829-12.167,15.4h-22.389L278.192,95.708z M298.069,273.144c-6.14,0-11.136-5.085-11.136-11.335
	c0-6.251,4.996-11.336,11.136-11.336c6.141,0,11.138,5.085,11.138,11.336C309.207,268.059,304.21,273.144,298.069,273.144z
	 M293.055,235.964c-9.572,1.882-17.288,9.044-20.036,18.344h-17.066l6.726-47.967h21.808c1.745,5.907,5.489,10.954,10.446,14.332
	L293.055,235.964z M320.676,198.841c0,6.251-4.996,11.337-11.137,11.337s-11.138-5.086-11.138-11.337s4.996-11.335,11.138-11.335
	C315.68,187.505,320.676,192.59,320.676,198.841z M300.657,174.073c-7.751,2.831-13.803,9.257-16.169,17.268h-19.705l6.683-47.655
	h24.492c1.315,4.449,3.767,8.406,7.016,11.533L300.657,174.073z M332.145,136.186c0,6.25-4.997,11.335-11.138,11.335
	c-6.14,0-11.136-5.085-11.136-11.335c0-6.251,4.996-11.336,11.136-11.336C327.148,124.849,332.145,129.935,332.145,136.186z
	 M376.535,74.565c-1.416-1.896-3.643-3.013-6.009-3.013h-0.001c-2.366,0-4.594,1.117-6.009,3.012
	c-3.312,4.435-8.379,6.979-13.903,6.979c-5.523,0-10.591-2.544-13.903-6.979c-1.416-1.896-3.643-3.012-6.01-3.012
	c-2.366,0-4.594,1.117-6.009,3.013c-3.311,4.434-8.377,6.978-13.901,6.978s-10.591-2.544-13.903-6.978
	c-1.415-1.896-3.643-3.013-6.01-3.013c-2.366,0-4.594,1.117-6.009,3.013c-3.311,4.434-8.378,6.978-13.901,6.978
	c-9.559,0-17.335-7.776-17.335-17.335c0-4.061,1.435-8.01,4.041-11.12c2.334-2.787,2.334-6.846,0-9.632
	c-2.606-3.111-4.042-7.061-4.042-11.121c0-9.558,7.776-17.334,17.335-17.334c5.524,0,10.591,2.544,13.901,6.978
	c1.416,1.897,3.643,3.014,6.01,3.014l0,0c2.366,0,4.594-1.117,6.01-3.013c3.312-4.436,8.379-6.98,13.903-6.98
	c5.524,0,10.59,2.544,13.901,6.978c1.416,1.897,3.644,3.014,6.01,3.014l0,0c2.366,0,4.594-1.117,6.01-3.013
	c3.312-4.435,8.378-6.979,13.902-6.979c5.524,0,10.591,2.544,13.902,6.979c1.416,1.896,3.644,3.013,6.01,3.013
	s4.594-1.117,6.01-3.014c3.311-4.434,8.377-6.978,13.901-6.978s10.591,2.544,13.902,6.979c1.416,1.896,3.643,3.013,6.01,3.013
	c2.366,0,4.594-1.117,6.01-3.014C419.669,17.544,424.736,15,430.26,15c5.524,0,10.591,2.544,13.902,6.979
	c1.416,1.896,3.644,3.013,6.01,3.013s4.594-1.117,6.01-3.014c3.31-4.434,8.377-6.978,13.901-6.978
	c9.559,0,17.335,7.776,17.335,17.334c0,4.061-1.435,8.01-4.042,11.121c-2.334,2.787-2.334,6.846,0.001,9.632
	c2.606,3.11,4.041,7.06,4.041,11.12c0,9.558-7.776,17.335-17.335,17.335c-5.524,0-10.591-2.544-13.901-6.978
	c-1.415-1.896-3.643-3.013-6.009-3.013l0,0c-2.366,0-4.594,1.117-6.009,3.013c-3.312,4.435-8.379,6.978-13.903,6.978
	s-10.591-2.544-13.901-6.978c-1.415-1.896-3.643-3.013-6.009-3.013l0,0c-2.366,0-4.594,1.117-6.009,3.012
	c-3.312,4.435-8.379,6.979-13.903,6.979C384.913,81.543,379.846,78.999,376.535,74.565z M403.303,106.646V93.849
	c2.509-1.091,4.88-2.493,7.045-4.181c5.635,4.391,12.655,6.875,19.912,6.875c7.256,0,14.277-2.483,19.912-6.875
	c4.472,3.485,9.819,5.763,15.462,6.557v10.421C465.634,106.646,403.303,106.646,403.303,106.646z"/>
<path d="M101.665,394.127h-35.84c-4.142,0-7.5,3.358-7.5,7.5s3.358,7.5,7.5,7.5h35.84c4.142,0,7.5-3.358,7.5-7.5
	C109.165,397.485,105.807,394.127,101.665,394.127z"/>
<path d="M478.704,494.056h-14.668V504.5c0,4.142,3.358,7.5,7.5,7.5s7.5-3.358,7.5-7.5v-10.461
	C478.925,494.044,478.816,494.056,478.704,494.056z"/>
<g>
</g>
<g>
</g>
<g>
</g>
<g>
</g>
<g>
</g>
<g>
</g>
<g>
</g>
<g>
</g>
<g>
</g>
<g>
</g>
<g>
</g>
<g>
</g>
<g>
</g>
<g>
</g>
<g>
</g>
</svg>
