<?xml version="1.0" encoding="iso-8859-1"?>
<!-- Generator: Adobe Illustrator 19.0.0, SVG Export Plug-In . SVG Version: 6.00 Build 0)  -->
<svg version="1.1" id="Capa_1" xmlns="http://www.w3.org/2000/svg" xmlns:xlink="http://www.w3.org/1999/xlink" x="0px" y="0px"
	 viewBox="0 0 416.287 416.287" style="enable-background:new 0 0 416.287 416.287;" xml:space="preserve">
<path style="fill:#FDE415;" d="M190.908,343.36c-39.2,0.8-76.8-13.6-104.8-40.8h-0.8c-8,3.2-16.8,4.8-25.6,4.8
	c-22.4,0-40.8-10.4-46.4-27.2c-8.8-24,9.6-52,40-64l0.8-0.8c4-56,48-108,109.6-131.2c20-7.2,41.6-11.2,63.2-11.2
	c39.2-0.8,76.8,13.6,104.8,40.8h0.8c8-3.2,16.8-4.8,25.6-4.8c22.4,0,40.8,10.4,46.4,27.2c8.8,24-9.6,52.8-40,64l-0.8,0.8
	c-4,56-48,108.8-109.6,131.2C234.108,339.36,212.508,343.36,190.908,343.36z"/>
<path style="fill:#FFEB73;" d="M38.108,282.56c-7.2-19.2,8.8-44,36-53.6c3.2-1.6,5.6-4.8,5.6-8c4-52.8,45.6-102.4,104-124
	c19.2-7.2,40-11.2,60.8-11.2c10.4,0,20.8,0.8,31.2,3.2c-4.8-12-28-16-45.6-16c-23.2-0.8-45.6,2.4-67.2,9.6
	c-58.4,21.6-105.6,76.8-109.6,129.6c0,3.2-2.4,6.4-5.6,8c-27.2,10.4-40.8,44-33.6,63.2c4.8,12,24,16,40.8,16.8
	C46.908,296.16,41.308,289.76,38.108,282.56z"/>
<path style="fill:#F4C80F;" d="M404.508,139.36c-4.8-12-18.4-20-36-21.6c2.4,2.4,4.8,5.6,6.4,9.6c8,19.2-9.6,44-37.6,53.6
	c-3.2,0.8-5.6,4-6.4,8c-4,52.8-48.8,102.4-109.6,124c-20.8,7.2-42.4,11.2-64,11.2l0,0c-16.8,0-32.8-2.4-48.8-7.2
	c22.4,12.8,31.2,26.4,60,26.4l19.2-1.6c21.6,0,43.2-4,64-11.2c60.8-21.6,104.8-76.8,108.8-129.6c0-4,2.4-7.2,6.4-8
	C395.708,182.56,412.508,158.56,404.508,139.36z"/>
<path style="fill:#1C1211;" d="M357.308,98.56c-8,0-16,0.8-23.2,3.2c-29.6-26.4-68-40-108-39.2c-23.2,0-45.6,4-67.2,12
	c-64,23.2-108.8,75.2-115.2,134.4c-32.8,14.4-51.2,47.2-40.8,74.4c7.2,20.8,29.6,33.6,56,33.6c8,0,16-0.8,23.2-3.2
	c29.6,26.4,68,40,108,40l0,0c23.2,0,45.6-4,67.2-12c64-23.2,108-76,115.2-134.4c33.6-15.2,51.2-47.2,40.8-75.2
	C406.108,112.16,384.508,98.56,357.308,98.56z M361.308,192.96c-3.2,1.6-5.6,4.8-5.6,8c-4,52.8-45.6,102.4-104,124
	c-19.2,7.2-40,11.2-60.8,11.2l0,0c-36.8,0.8-72-12.8-99.2-38.4c-2.4-2.4-6.4-3.2-9.6-2.4c-7.2,2.4-15.2,4-23.2,4
	c-19.2,0-34.4-8.8-39.2-22.4c-7.2-19.2,8.8-44,36-53.6c3.2-1.6,5.6-4.8,5.6-8c4-52.8,45.6-102.4,104-124c19.2-7.2,40-11.2,60.8-11.2
	c36.8-0.8,72,12.8,99.2,38.4c2.4,2.4,6.4,3.2,9.6,2.4c7.2-2.4,15.2-4,23.2-4c19.2,0,34.4,8.8,39.2,22.4
	C403.708,158.56,387.708,182.56,361.308,192.96L361.308,192.96z"/>
<g>
</g>
<g>
</g>
<g>
</g>
<g>
</g>
<g>
</g>
<g>
</g>
<g>
</g>
<g>
</g>
<g>
</g>
<g>
</g>
<g>
</g>
<g>
</g>
<g>
</g>
<g>
</g>
<g>
</g>
</svg>
